RobotoSerifMicro-RegularWideItalic.ufo
<glyph name="plus" format="2">
  <advance width="685"/>
  <unicode hex="002B"/>
  <outline>
    <contour>
      <point x="378" y="574" type="line"/>
      <point x="235" y="108" type="line"/>
      <point x="317" y="108" type="line"/>
      <point x="460" y="574" type="line"/>
    </contour>
    <contour>
      <point x="632" y="372" type="line"/>
      <point x="80" y="372" type="line"/>
      <point x="62" y="310" type="line"/>
      <point x="614" y="310" type="line"/>
    </contour>
  </outline>
</glyph>
<glyph name="three" format="2">
  <advance width="686"/>
  <unicode hex="0033"/>
  <outline>
    <contour>
      <point x="280" y="-79" type="curve" smooth="yes"/>
      <point x="98" y="-79"/>
      <point x="13" y="5"/>
      <point x="-14" y="110" type="curve"/>
      <point x="55" y="132" type="line"/>
      <point x="84" y="48"/>
      <point x="129" y="-24"/>
      <point x="282" y="-24" type="curve" smooth="yes"/>
      <point x="411" y="-24"/>
      <point x="475" y="42"/>
      <point x="475" y="139" type="curve" smooth="yes"/>
      <point x="475" y="224"/>
      <point x="422" y="272"/>
      <point x="295" y="272" type="curve" smooth="yes"/>
      <point x="202" y="272" type="line"/>
      <point x="218" y="330" type="line"/>
      <point x="319" y="330" type="line"/>
      <point x="471" y="330"/>
      <point x="539" y="401"/>
      <point x="539" y="496" type="curve" smooth="yes"/>
      <point x="539" y="571"/>
      <point x="488" y="605"/>
      <point x="381" y="605" type="curve" smooth="yes"/>
      <point x="295" y="605"/>
      <point x="239" y="579"/>
      <point x="210" y="562" type="curve"/>
      <point x="210" y="582"/>
      <point x="240" y="606"/>
      <point x="275" y="607" type="curve"/>
      <point x="233" y="454" type="line"/>
      <point x="137" y="454" type="line"/>
      <point x="181" y="612" type="line"/>
      <point x="218" y="629"/>
      <point x="297" y="659"/>
      <point x="395" y="659" type="curve" smooth="yes"/>
      <point x="549" y="659"/>
      <point x="636" y="602"/>
      <point x="636" y="501" type="curve" smooth="yes"/>
      <point x="636" y="379"/>
      <point x="521" y="302"/>
      <point x="339" y="301" type="curve"/>
      <point x="375" y="315" type="line"/>
      <point x="367" y="287" type="line"/>
      <point x="332" y="302" type="line"/>
      <point x="505" y="291"/>
      <point x="577" y="228"/>
      <point x="577" y="137" type="curve" smooth="yes"/>
      <point x="577" y="3"/>
      <point x="455" y="-79"/>
    </contour>
  </outline>
</glyph>
<glyph name="five" format="2">
  <advance width="686"/>
  <unicode hex="0035"/>
  <outline>
    <contour>
      <point x="277" y="-80" type="curve" smooth="yes"/>
      <point x="489" y="-80"/>
      <point x="595" y="72"/>
      <point x="595" y="233" type="curve" smooth="yes"/>
      <point x="595" y="346"/>
      <point x="513" y="406"/>
      <point x="395" y="406" type="curve" smooth="yes"/>
      <point x="291" y="406"/>
      <point x="221" y="360"/>
      <point x="158" y="271" type="curve"/>
      <point x="187" y="286" type="line"/>
      <point x="292" y="628" type="line"/>
      <point x="250" y="579" type="line"/>
      <point x="615" y="579" type="line"/>
      <point x="662" y="648" type="line"/>
      <point x="229" y="648" type="line"/>
      <point x="108" y="252" type="line"/>
      <point x="172" y="252" type="line"/>
      <point x="229" y="318"/>
      <point x="293" y="351"/>
      <point x="375" y="351" type="curve" smooth="yes"/>
      <point x="453" y="351"/>
      <point x="496" y="310"/>
      <point x="496" y="238" type="curve" smooth="yes"/>
      <point x="496" y="102"/>
      <point x="434" y="-25"/>
      <point x="279" y="-25" type="curve" smooth="yes"/>
      <point x="139" y="-25"/>
      <point x="104" y="53"/>
      <point x="83" y="114" type="curve"/>
      <point x="12" y="87" type="line"/>
      <point x="40" y="-3"/>
      <point x="111" y="-80"/>
    </contour>
  </outline>
</glyph>
<glyph name="six" format="2">
  <advance width="686"/>
  <unicode hex="0036"/>
  <outline>
    <contour>
      <point x="300" y="-10" type="curve" smooth="yes"/>
      <point x="509" y="-10"/>
      <point x="614" y="147"/>
      <point x="614" y="295" type="curve" smooth="yes"/>
      <point x="614" y="402"/>
      <point x="546" y="468"/>
      <point x="419" y="468" type="curve" smooth="yes"/>
      <point x="299" y="468"/>
      <point x="221" y="412"/>
      <point x="134" y="300" type="curve"/>
      <point x="129" y="244" type="line"/>
      <point x="234" y="374"/>
      <point x="298" y="413"/>
      <point x="390" y="413" type="curve" smooth="yes"/>
      <point x="473" y="413"/>
      <point x="513" y="369"/>
      <point x="513" y="299" type="curve" smooth="yes"/>
      <point x="513" y="256"/>
      <point x="505" y="212"/>
      <point x="489" y="174" type="curve" smooth="yes"/>
      <point x="458" y="99"/>
      <point x="397" y="45"/>
      <point x="302" y="45" type="curve" smooth="yes"/>
      <point x="201" y="45"/>
      <point x="141" y="94"/>
      <point x="141" y="194" type="curve" smooth="yes"/>
      <point x="141" y="247"/>
      <point x="149" y="315"/>
      <point x="172" y="382" type="curve" smooth="yes"/>
      <point x="226" y="534"/>
      <point x="364" y="678"/>
      <point x="677" y="681" type="curve"/>
      <point x="684" y="740" type="line"/>
      <point x="221" y="732"/>
      <point x="45" y="458"/>
      <point x="45" y="203" type="curve" smooth="yes"/>
      <point x="45" y="69"/>
      <point x="137" y="-10"/>
    </contour>
  </outline>
</glyph>
<glyph name="seven" format="2">
  <advance width="686"/>
  <unicode hex="0037"/>
  <outline>
    <contour>
      <point x="383" y="581" type="line" smooth="yes"/>
      <point x="278" y="581"/>
      <point x="231" y="574"/>
      <point x="217" y="538" type="curve" smooth="yes"/>
      <point x="174" y="433" type="line"/>
      <point x="101" y="433" type="line"/>
      <point x="165" y="648" type="line"/>
      <point x="726" y="648" type="line"/>
      <point x="705" y="578" type="line"/>
      <point x="483" y="413"/>
      <point x="342" y="284"/>
      <point x="241" y="-67" type="curve"/>
      <point x="136" y="-67" type="line"/>
      <point x="244" y="286"/>
      <point x="512" y="503"/>
      <point x="653" y="594" type="curve"/>
      <point x="661" y="581" type="line"/>
    </contour>
  </outline>
</glyph>
<glyph name="nine" format="2">
  <advance width="686"/>
  <unicode hex="0039"/>
  <outline>
    <contour>
      <point x="388" y="660" type="curve" smooth="yes"/>
      <point x="554" y="660"/>
      <point x="638" y="588"/>
      <point x="638" y="449" type="curve" smooth="yes"/>
      <point x="638" y="174"/>
      <point x="469" y="-81"/>
      <point x="5" y="-90" type="curve"/>
      <point x="12" y="-32" type="line"/>
      <point x="367" y="-28"/>
      <point x="491" y="145"/>
      <point x="528" y="316" type="curve" smooth="yes"/>
      <point x="539" y="366"/>
      <point x="542" y="414"/>
      <point x="542" y="458" type="curve" smooth="yes"/>
      <point x="542" y="563"/>
      <point x="487" y="605"/>
      <point x="384" y="605" type="curve" smooth="yes"/>
      <point x="278" y="605"/>
      <point x="213" y="540"/>
      <point x="185" y="456" type="curve" smooth="yes"/>
      <point x="175" y="424"/>
      <point x="170" y="391"/>
      <point x="170" y="358" type="curve" smooth="yes"/>
      <point x="170" y="289"/>
      <point x="212" y="246"/>
      <point x="296" y="246" type="curve" smooth="yes"/>
      <point x="388" y="246"/>
      <point x="452" y="284"/>
      <point x="554" y="407" type="curve"/>
      <point x="558" y="359" type="line"/>
      <point x="468" y="247"/>
      <point x="393" y="191"/>
      <point x="264" y="191" type="curve" smooth="yes"/>
      <point x="139" y="191"/>
      <point x="69" y="257"/>
      <point x="69" y="361" type="curve" smooth="yes"/>
      <point x="69" y="505"/>
      <point x="174" y="660"/>
    </contour>
  </outline>
</glyph>
<glyph name="B" format="2">
  <advance width="852"/>
  <unicode hex="0042"/>
  <outline>
    <contour>
      <point x="477" y="346" type="line" smooth="yes"/>
      <point x="597" y="346"/>
      <point x="649" y="298"/>
      <point x="649" y="220" type="curve" smooth="yes"/>
      <point x="649" y="115"/>
      <point x="576" y="56"/>
      <point x="428" y="56" type="curve" smooth="yes"/>
      <point x="199" y="56" type="line"/>
      <point x="288" y="346" type="line"/>
    </contour>
    <contour>
      <point x="546" y="654" type="line" smooth="yes"/>
      <point x="657" y="654"/>
      <point x="694" y="613"/>
      <point x="694" y="550" type="curve" smooth="yes"/>
      <point x="694" y="455"/>
      <point x="619" y="398"/>
      <point x="503" y="398" type="curve" smooth="yes"/>
      <point x="304" y="398" type="line"/>
      <point x="382" y="654" type="line"/>
    </contour>
    <contour>
      <point x="550" y="372" type="line"/>
      <point x="703" y="378"/>
      <point x="795" y="447"/>
      <point x="795" y="558" type="curve" smooth="yes"/>
      <point x="795" y="650"/>
      <point x="716" y="710"/>
      <point x="550" y="710" type="curve" smooth="yes"/>
      <point x="185" y="710" type="line"/>
      <point x="167" y="652" type="line"/>
      <point x="180" y="652" type="line" smooth="yes"/>
      <point x="240" y="652"/>
      <point x="282" y="645"/>
      <point x="273" y="616" type="curve" smooth="yes"/>
      <point x="113" y="94" type="line" smooth="yes"/>
      <point x="104" y="65"/>
      <point x="58" y="58"/>
      <point x="-2" y="58" type="curve" smooth="yes"/>
      <point x="-16" y="58" type="line"/>
      <point x="-34" y="0" type="line"/>
      <point x="422" y="0" type="line" smooth="yes"/>
      <point x="627" y="0"/>
      <point x="753" y="72"/>
      <point x="753" y="213" type="curve" smooth="yes"/>
      <point x="753" y="302"/>
      <point x="673" y="365"/>
      <point x="545" y="371" type="curve"/>
      <point x="565" y="351" type="line"/>
      <point x="575" y="385" type="line"/>
    </contour>
  </outline>
</glyph>
<glyph name="D" format="2">
  <advance width="964"/>
  <unicode hex="0044"/>
  <anchor x="476" y="741" name="top"/>
  <anchor x="476" y="0" name="bottom"/>
  <outline>
    <contour>
      <point x="167" y="652" type="line"/>
      <point x="180" y="652" type="line" smooth="yes"/>
      <point x="240" y="652"/>
      <point x="282" y="645"/>
      <point x="273" y="616" type="curve" smooth="yes"/>
      <point x="113" y="94" type="line" smooth="yes"/>
      <point x="104" y="65"/>
      <point x="58" y="58"/>
      <point x="-2" y="58" type="curve" smooth="yes"/>
      <point x="-16" y="58" type="line"/>
      <point x="-34" y="0" type="line"/>
      <point x="404" y="0" type="line" smooth="yes"/>
      <point x="739" y="0"/>
      <point x="907" y="190"/>
      <point x="907" y="423" type="curve" smooth="yes"/>
      <point x="907" y="606"/>
      <point x="762" y="710"/>
      <point x="493" y="710" type="curve" smooth="yes"/>
      <point x="185" y="710" type="line"/>
    </contour>
    <contour>
      <point x="496" y="654" type="line" smooth="yes"/>
      <point x="717" y="654"/>
      <point x="802" y="574"/>
      <point x="802" y="424" type="curve" smooth="yes"/>
      <point x="802" y="234"/>
      <point x="706" y="56"/>
      <point x="399" y="56" type="curve" smooth="yes"/>
      <point x="199" y="56" type="line"/>
      <point x="382" y="654" type="line"/>
    </contour>
  </outline>
</glyph>
<glyph name="E" format="2">
  <advance width="839"/>
  <unicode hex="0045"/>
  <anchor x="480" y="741" name="top"/>
  <anchor x="548" y="0" name="right"/>
  <anchor x="480" y="0" name="bottom"/>
  <outline>
    <contour>
      <point x="738" y="224" type="line"/>
      <point x="665" y="224" type="line"/>
      <point x="610" y="101" type="line" smooth="yes"/>
      <point x="594" y="65"/>
      <point x="548" y="56"/>
      <point x="443" y="56" type="curve" smooth="yes"/>
      <point x="199" y="56" type="line"/>
      <point x="382" y="654" type="line"/>
      <point x="587" y="654" type="line" smooth="yes"/>
      <point x="692" y="654"/>
      <point x="730" y="645"/>
      <point x="725" y="609" type="curve" smooth="yes"/>
      <point x="715" y="511" type="line"/>
      <point x="786" y="511" type="line"/>
      <point x="842" y="710" type="line"/>
      <point x="185" y="710" type="line"/>
      <point x="167" y="652" type="line"/>
      <point x="180" y="652" type="line" smooth="yes"/>
      <point x="240" y="652"/>
      <point x="282" y="645"/>
      <point x="273" y="616" type="curve" smooth="yes"/>
      <point x="113" y="94" type="line" smooth="yes"/>
      <point x="104" y="65"/>
      <point x="58" y="58"/>
      <point x="-2" y="58" type="curve" smooth="yes"/>
      <point x="-16" y="58" type="line"/>
      <point x="-34" y="0" type="line"/>
      <point x="671" y="0" type="line"/>
    </contour>
    <contour>
      <point x="281" y="391" type="curve"/>
      <point x="264" y="339" type="line"/>
      <point x="385" y="335"/>
      <point x="504" y="330"/>
      <point x="623" y="326" type="curve"/>
      <point x="646" y="405" type="line"/>
      <point x="524" y="400"/>
      <point x="403" y="396"/>
    </contour>
  </outline>
</glyph>
<glyph name="H" format="2">
  <advance width="1041"/>
  <unicode hex="0048"/>
  <anchor x="522" y="741" name="top"/>
  <anchor x="522" y="0" name="bottom"/>
  <outline>
    <contour>
      <point x="281" y="394" type="line"/>
      <point x="264" y="338" type="line"/>
      <point x="778" y="338" type="line"/>
      <point x="795" y="394" type="line"/>
    </contour>
    <contour>
      <point x="-34" y="0" type="line"/>
      <point x="299" y="0" type="line"/>
      <point x="317" y="58" type="line"/>
      <point x="306" y="58" type="line" smooth="yes"/>
      <point x="259" y="58"/>
      <point x="200" y="61"/>
      <point x="202" y="68" type="curve" smooth="yes"/>
      <point x="379" y="642" type="line" smooth="yes"/>
      <point x="382" y="649"/>
      <point x="441" y="652"/>
      <point x="488" y="652" type="curve" smooth="yes"/>
      <point x="499" y="652" type="line"/>
      <point x="517" y="710" type="line"/>
      <point x="185" y="710" type="line"/>
      <point x="167" y="652" type="line"/>
      <point x="180" y="652" type="line" smooth="yes"/>
      <point x="240" y="652"/>
      <point x="282" y="645"/>
      <point x="273" y="616" type="curve" smooth="yes"/>
      <point x="113" y="94" type="line" smooth="yes"/>
      <point x="104" y="65"/>
      <point x="58" y="58"/>
      <point x="-2" y="58" type="curve" smooth="yes"/>
      <point x="-16" y="58" type="line"/>
    </contour>
    <contour>
      <point x="532" y="0" type="line"/>
      <point x="865" y="0" type="line"/>
      <point x="883" y="58" type="line"/>
      <point x="870" y="58" type="line" smooth="yes"/>
      <point x="809" y="58"/>
      <point x="768" y="65"/>
      <point x="776" y="94" type="curve" smooth="yes"/>
      <point x="937" y="616" type="line" smooth="yes"/>
      <point x="945" y="645"/>
      <point x="991" y="652"/>
      <point x="1052" y="652" type="curve" smooth="yes"/>
      <point x="1065" y="652" type="line"/>
      <point x="1083" y="710" type="line"/>
      <point x="751" y="710" type="line"/>
      <point x="733" y="652" type="line"/>
      <point x="743" y="652" type="line" smooth="yes"/>
      <point x="790" y="652"/>
      <point x="850" y="649"/>
      <point x="847" y="642" type="curve" smooth="yes"/>
      <point x="670" y="68" type="line" smooth="yes"/>
      <point x="668" y="61"/>
      <point x="608" y="58"/>
      <point x="561" y="58" type="curve" smooth="yes"/>
      <point x="550" y="58" type="line"/>
    </contour>
  </outline>
</glyph>
<glyph name="I" format="2">
  <advance width="495"/>
  <unicode hex="0049"/>
  <anchor x="249" y="741" name="top"/>
  <anchor x="313" y="0" name="right"/>
  <anchor x="249" y="0" name="bottom"/>
  <outline>
    <contour>
      <point x="123" y="94" type="line" smooth="yes"/>
      <point x="115" y="65"/>
      <point x="68" y="58"/>
      <point x="8" y="58" type="curve" smooth="yes"/>
      <point x="-16" y="58" type="line"/>
      <point x="-35" y="0" type="line"/>
      <point x="320" y="0" type="line"/>
      <point x="338" y="58" type="line"/>
      <point x="314" y="58" type="line" smooth="yes"/>
      <point x="254" y="58"/>
      <point x="212" y="65"/>
      <point x="221" y="94" type="curve" smooth="yes"/>
      <point x="381" y="616" type="line" smooth="yes"/>
      <point x="389" y="645"/>
      <point x="436" y="652"/>
      <point x="496" y="652" type="curve" smooth="yes"/>
      <point x="520" y="652" type="line"/>
      <point x="539" y="710" type="line"/>
      <point x="184" y="710" type="line"/>
      <point x="166" y="652" type="line"/>
      <point x="190" y="652" type="line" smooth="yes"/>
      <point x="250" y="652"/>
      <point x="292" y="645"/>
      <point x="283" y="616" type="curve" smooth="yes"/>
    </contour>
  </outline>
</glyph>
<glyph name="L" format="2">
  <advance width="811"/>
  <unicode hex="004C"/>
  <anchor x="469" y="741" name="top"/>
  <anchor x="567" y="710" name="right"/>
  <anchor x="569" y="410" name="mid"/>
  <anchor x="469" y="0" name="bottom"/>
  <outline>
    <contour>
      <point x="532" y="710" type="line"/>
      <point x="185" y="710" type="line"/>
      <point x="167" y="652" type="line"/>
      <point x="180" y="652" type="line" smooth="yes"/>
      <point x="240" y="652"/>
      <point x="282" y="645"/>
      <point x="273" y="616" type="curve" smooth="yes"/>
      <point x="113" y="94" type="line" smooth="yes"/>
      <point x="104" y="65"/>
      <point x="58" y="58"/>
      <point x="-2" y="58" type="curve" smooth="yes"/>
      <point x="-16" y="58" type="line"/>
      <point x="-34" y="0" type="line"/>
      <point x="648" y="0" type="line"/>
      <point x="718" y="237" type="line"/>
      <point x="644" y="237" type="line"/>
      <point x="585" y="101" type="line" smooth="yes"/>
      <point x="569" y="65"/>
      <point x="523" y="56"/>
      <point x="418" y="56" type="curve" smooth="yes"/>
      <point x="199" y="56" type="line"/>
      <point x="371" y="616" type="line" smooth="yes"/>
      <point x="379" y="645"/>
      <point x="427" y="652"/>
      <point x="493" y="652" type="curve" smooth="yes"/>
      <point x="514" y="652" type="line"/>
    </contour>
  </outline>
</glyph>
<glyph name="M" format="2">
  <advance width="1195"/>
  <unicode hex="004D"/>
  <anchor x="587" y="0" name="bottom"/>
  <outline>
    <contour>
      <point x="-34" y="0" type="line"/>
      <point x="253" y="0" type="line"/>
      <point x="270" y="58" type="line"/>
      <point x="265" y="58" type="line" smooth="yes"/>
      <point x="237" y="58"/>
      <point x="178" y="61"/>
      <point x="180" y="68" type="curve" smooth="yes"/>
      <point x="373" y="700" type="line"/>
      <point x="364" y="702" type="line"/>
      <point x="445" y="-2" type="line"/>
      <point x="517" y="-2" type="line"/>
      <point x="1032" y="702" type="line"/>
      <point x="1020" y="694" type="line"/>
      <point x="828" y="68" type="line" smooth="yes"/>
      <point x="826" y="61"/>
      <point x="765" y="58"/>
      <point x="730" y="58" type="curve" smooth="yes"/>
      <point x="720" y="58" type="line"/>
      <point x="702" y="0" type="line"/>
      <point x="1021" y="0" type="line"/>
      <point x="1038" y="58" type="line"/>
      <point x="1024" y="58" type="line" smooth="yes"/>
      <point x="965" y="58"/>
      <point x="923" y="65"/>
      <point x="931" y="94" type="curve" smooth="yes"/>
      <point x="1091" y="616" type="line" smooth="yes"/>
      <point x="1099" y="645"/>
      <point x="1146" y="652"/>
      <point x="1206" y="652" type="curve" smooth="yes"/>
      <point x="1219" y="652" type="line"/>
      <point x="1237" y="710" type="line"/>
      <point x="962" y="710" type="line"/>
      <point x="509" y="80" type="line"/>
      <point x="524" y="77" type="line"/>
      <point x="459" y="710" type="line"/>
      <point x="183" y="710" type="line"/>
      <point x="165" y="652" type="line"/>
      <point x="179" y="652" type="line" smooth="yes"/>
      <point x="239" y="652"/>
      <point x="281" y="645"/>
      <point x="272" y="616" type="curve" smooth="yes"/>
      <point x="112" y="94" type="line" smooth="yes"/>
      <point x="103" y="65"/>
      <point x="57" y="58"/>
      <point x="-3" y="58" type="curve" smooth="yes"/>
      <point x="-16" y="58" type="line"/>
    </contour>
  </outline>
</glyph>
<glyph name="N" format="2">
  <advance width="1019"/>
  <unicode hex="004E"/>
  <anchor x="520" y="741" name="top"/>
  <anchor x="520" y="0" name="bottom"/>
  <outline>
    <contour>
      <point x="-34" y="0" type="line"/>
      <point x="278" y="0" type="line"/>
      <point x="296" y="58" type="line"/>
      <point x="279" y="58" type="line" smooth="yes"/>
      <point x="239" y="58"/>
      <point x="179" y="61"/>
      <point x="181" y="68" type="curve"/>
      <point x="366" y="673" type="line"/>
      <point x="350" y="672" type="line"/>
      <point x="620" y="0" type="line"/>
      <point x="726" y="0" type="line"/>
      <point x="915" y="616" type="line" smooth="yes"/>
      <point x="923" y="645"/>
      <point x="970" y="652"/>
      <point x="1030" y="652" type="curve" smooth="yes"/>
      <point x="1044" y="652" type="line"/>
      <point x="1061" y="710" type="line"/>
      <point x="750" y="710" type="line"/>
      <point x="732" y="652" type="line"/>
      <point x="749" y="652" type="line" smooth="yes"/>
      <point x="789" y="652"/>
      <point x="849" y="649"/>
      <point x="846" y="642" type="curve" smooth="yes"/>
      <point x="673" y="76" type="line"/>
      <point x="684" y="80" type="line"/>
      <point x="434" y="710" type="line"/>
      <point x="185" y="710" type="line"/>
      <point x="167" y="652" type="line"/>
      <point x="180" y="652" type="line" smooth="yes"/>
      <point x="240" y="652"/>
      <point x="282" y="645"/>
      <point x="273" y="616" type="curve" smooth="yes"/>
      <point x="113" y="94" type="line" smooth="yes"/>
      <point x="104" y="65"/>
      <point x="58" y="58"/>
      <point x="-2" y="58" type="curve" smooth="yes"/>
      <point x="-16" y="58" type="line"/>
    </contour>
  </outline>
</glyph>
<glyph name="O" format="2">
  <advance width="988"/>
  <unicode hex="004F"/>
  <anchor x="495" y="741" name="top"/>
  <anchor x="495" y="0" name="bottom"/>
  <outline>
    <contour>
      <point x="933" y="438" type="curve" smooth="yes"/>
      <point x="933" y="609"/>
      <point x="809" y="735"/>
      <point x="565" y="735" type="curve" smooth="yes"/>
      <point x="217" y="735"/>
      <point x="67" y="476"/>
      <point x="67" y="272" type="curve" smooth="yes"/>
      <point x="67" y="101"/>
      <point x="191" y="-25"/>
      <point x="435" y="-25" type="curve" smooth="yes"/>
      <point x="782" y="-25"/>
      <point x="933" y="234"/>
    </contour>
    <contour>
      <point x="439" y="33" type="curve" smooth="yes"/>
      <point x="259" y="33"/>
      <point x="172" y="116"/>
      <point x="172" y="256" type="curve" smooth="yes"/>
      <point x="172" y="308"/>
      <point x="179" y="366"/>
      <point x="203" y="424" type="curve" smooth="yes"/>
      <point x="262" y="590"/>
      <point x="381" y="677"/>
      <point x="561" y="677" type="curve" smooth="yes"/>
      <point x="741" y="677"/>
      <point x="828" y="594"/>
      <point x="828" y="454" type="curve" smooth="yes"/>
      <point x="828" y="402"/>
      <point x="820" y="344"/>
      <point x="797" y="286" type="curve" smooth="yes"/>
      <point x="738" y="120"/>
      <point x="619" y="33"/>
    </contour>
  </outline>
</glyph>
<glyph name="R" format="2">
  <advance width="913"/>
  <unicode hex="0052"/>
  <anchor x="489" y="741" name="top"/>
  <anchor x="489" y="0" name="bottom"/>
  <outline>
    <contour>
      <point x="-34" y="0" type="line"/>
      <point x="322" y="0" type="line"/>
      <point x="340" y="58" type="line"/>
      <point x="317" y="58" type="line" smooth="yes"/>
      <point x="258" y="58"/>
      <point x="201" y="61"/>
      <point x="203" y="68" type="curve" smooth="yes"/>
      <point x="275" y="303" type="line"/>
      <point x="510" y="303" type="line"/>
      <point x="514" y="303"/>
      <point x="519" y="309"/>
      <point x="543" y="315" type="curve"/>
      <point x="701" y="328"/>
      <point x="819" y="401"/>
      <point x="819" y="537" type="curve" smooth="yes"/>
      <point x="819" y="642"/>
      <point x="721" y="710"/>
      <point x="539" y="710" type="curve" smooth="yes"/>
      <point x="185" y="710" type="line"/>
      <point x="167" y="652" type="line"/>
      <point x="180" y="652" type="line" smooth="yes"/>
      <point x="240" y="652"/>
      <point x="282" y="645"/>
      <point x="273" y="616" type="curve" smooth="yes"/>
      <point x="113" y="94" type="line" smooth="yes"/>
      <point x="104" y="65"/>
      <point x="58" y="58"/>
      <point x="-2" y="58" type="curve" smooth="yes"/>
      <point x="-16" y="58" type="line"/>
    </contour>
    <contour>
      <point x="541" y="654" type="line" smooth="yes"/>
      <point x="660" y="654"/>
      <point x="714" y="610"/>
      <point x="714" y="534" type="curve" smooth="yes"/>
      <point x="714" y="425"/>
      <point x="643" y="357"/>
      <point x="508" y="357" type="curve" smooth="yes"/>
      <point x="291" y="357" type="line"/>
      <point x="382" y="654" type="line"/>
    </contour>
    <contour>
      <point x="477" y="323" type="line"/>
      <point x="619" y="0" type="line"/>
      <point x="787" y="0" type="line"/>
      <point x="805" y="58" type="line"/>
      <point x="784" y="58" type="line" smooth="yes"/>
      <point x="726" y="58"/>
      <point x="697" y="69"/>
      <point x="673" y="120" type="curve" smooth="yes"/>
      <point x="566" y="349" type="line"/>
    </contour>
  </outline>
</glyph>
<glyph name="T" format="2">
  <advance width="864"/>
  <unicode hex="0054"/>
  <anchor x="450" y="741" name="top"/>
  <anchor x="450" y="0" name="bottom"/>
  <outline>
    <contour>
      <point x="300" y="94" type="line" smooth="yes"/>
      <point x="291" y="65"/>
      <point x="239" y="58"/>
      <point x="178" y="58" type="curve" smooth="yes"/>
      <point x="154" y="58" type="line"/>
      <point x="136" y="0" type="line"/>
      <point x="503" y="0" type="line"/>
      <point x="521" y="58" type="line"/>
      <point x="497" y="58" type="line" smooth="yes"/>
      <point x="437" y="58"/>
      <point x="389" y="65"/>
      <point x="397" y="94" type="curve" smooth="yes"/>
      <point x="569" y="654" type="line"/>
      <point x="651" y="654" type="line" smooth="yes"/>
      <point x="764" y="654"/>
      <point x="801" y="638"/>
      <point x="793" y="599" type="curve" smooth="yes"/>
      <point x="769" y="475" type="line"/>
      <point x="840" y="475" type="line"/>
      <point x="912" y="710" type="line"/>
      <point x="162" y="710" type="line"/>
      <point x="89" y="475" type="line"/>
      <point x="160" y="475" type="line"/>
      <point x="215" y="599" type="line" smooth="yes"/>
      <point x="232" y="638"/>
      <point x="276" y="654"/>
      <point x="394" y="654" type="curve" smooth="yes"/>
      <point x="471" y="654" type="line"/>
    </contour>
  </outline>
</glyph>
<glyph name="U" format="2">
  <advance width="983"/>
  <unicode hex="0055"/>
  <anchor x="514" y="741" name="top"/>
  <anchor x="569" y="0" name="right"/>
  <anchor x="514" y="0" name="bottom"/>
  <outline>
    <contour>
      <point x="267" y="350" type="curve" smooth="yes"/>
      <point x="356" y="642" type="line" smooth="yes"/>
      <point x="358" y="649"/>
      <point x="419" y="652"/>
      <point x="465" y="652" type="curve" smooth="yes"/>
      <point x="476" y="652" type="line"/>
      <point x="494" y="710" type="line"/>
      <point x="161" y="710" type="line"/>
      <point x="144" y="652" type="line"/>
      <point x="157" y="652" type="line" smooth="yes"/>
      <point x="217" y="652"/>
      <point x="259" y="645"/>
      <point x="250" y="616" type="curve" smooth="yes"/>
      <point x="172" y="358" type="line" smooth="yes"/>
      <point x="145" y="268"/>
      <point x="137" y="226"/>
      <point x="137" y="187" type="curve" smooth="yes"/>
      <point x="137" y="52"/>
      <point x="248" y="-25"/>
      <point x="438" y="-25" type="curve" smooth="yes"/>
      <point x="603" y="-25"/>
      <point x="724" y="48"/>
      <point x="784" y="246" type="curve" smooth="yes"/>
      <point x="894" y="607" type="line" smooth="yes"/>
      <point x="904" y="641"/>
      <point x="952" y="652"/>
      <point x="1011" y="652" type="curve" smooth="yes"/>
      <point x="1025" y="652" type="line"/>
      <point x="1043" y="710" type="line"/>
      <point x="733" y="710" type="line"/>
      <point x="715" y="652" type="line"/>
      <point x="726" y="652" type="line" smooth="yes"/>
      <point x="773" y="652"/>
      <point x="831" y="645"/>
      <point x="828" y="633" type="curve" smooth="yes"/>
      <point x="711" y="251" type="line" smooth="yes"/>
      <point x="663" y="96"/>
      <point x="589" y="41"/>
      <point x="444" y="41" type="curve" smooth="yes"/>
      <point x="306" y="41"/>
      <point x="235" y="96"/>
      <point x="235" y="191" type="curve" smooth="yes"/>
      <point x="235" y="233"/>
      <point x="241" y="265"/>
    </contour>
  </outline>
</glyph>
<glyph name="V" format="2">
  <advance width="868"/>
  <unicode hex="0056"/>
  <outline>
    <contour>
      <point x="353" y="20" type="line"/>
      <point x="292" y="641" type="line"/>
      <point x="295" y="648"/>
      <point x="338" y="652"/>
      <point x="406" y="652" type="curve" smooth="yes"/>
      <point x="418" y="652" type="line"/>
      <point x="436" y="710" type="line"/>
      <point x="126" y="710" type="line"/>
      <point x="109" y="652" type="line"/>
      <point x="117" y="652" type="line" smooth="yes"/>
      <point x="167" y="652"/>
      <point x="197" y="641"/>
      <point x="202" y="588" type="curve" smooth="yes"/>
      <point x="264" y="-12" type="line"/>
      <point x="388" y="-12" type="line"/>
      <point x="813" y="588" type="line" smooth="yes"/>
      <point x="850" y="641"/>
      <point x="887" y="652"/>
      <point x="937" y="652" type="curve" smooth="yes"/>
      <point x="945" y="652" type="line"/>
      <point x="962" y="710" type="line"/>
      <point x="662" y="710" type="line"/>
      <point x="645" y="652" type="line"/>
      <point x="658" y="652" type="line" smooth="yes"/>
      <point x="726" y="652"/>
      <point x="764" y="642"/>
      <point x="760" y="629" type="curve"/>
      <point x="335" y="25" type="line"/>
    </contour>
  </outline>
</glyph>
<glyph name="W" format="2">
  <advance width="1263"/>
  <unicode hex="0057"/>
  <anchor x="664" y="741" name="top"/>
  <outline>
    <contour>
      <point x="127" y="710" type="line"/>
      <point x="109" y="652" type="line"/>
      <point x="117" y="652" type="line" smooth="yes"/>
      <point x="165" y="652"/>
      <point x="195" y="648"/>
      <point x="195" y="610" type="curve" smooth="yes"/>
      <point x="205" y="-4" type="line"/>
      <point x="321" y="-4" type="line"/>
      <point x="741" y="660" type="line"/>
      <point x="720" y="657" type="line"/>
      <point x="738" y="-4" type="line"/>
      <point x="857" y="-4" type="line"/>
      <point x="1223" y="601" type="line" smooth="yes"/>
      <point x="1246" y="639"/>
      <point x="1283" y="652"/>
      <point x="1331" y="652" type="curve" smooth="yes"/>
      <point x="1339" y="652" type="line"/>
      <point x="1357" y="710" type="line"/>
      <point x="1080" y="710" type="line"/>
      <point x="1062" y="652" type="line"/>
      <point x="1078" y="652" type="line" smooth="yes"/>
      <point x="1125" y="652"/>
      <point x="1170" y="642"/>
      <point x="1165" y="629" type="curve"/>
      <point x="809" y="36" type="line"/>
      <point x="825" y="37" type="line"/>
      <point x="809" y="710" type="line"/>
      <point x="701" y="710" type="line"/>
      <point x="274" y="34" type="line"/>
      <point x="294" y="35" type="line"/>
      <point x="289" y="641" type="line"/>
      <point x="292" y="648"/>
      <point x="343" y="652"/>
      <point x="390" y="652" type="curve" smooth="yes"/>
      <point x="408" y="652" type="line"/>
      <point x="426" y="710" type="line"/>
    </contour>
  </outline>
</glyph>
<glyph name="X" format="2">
  <advance width="938"/>
  <unicode hex="0058"/>
  <outline>
    <contour>
      <point x="148" y="652" type="line"/>
      <point x="167" y="652" type="line" smooth="yes"/>
      <point x="212" y="652"/>
      <point x="237" y="649"/>
      <point x="256" y="618" type="curve"/>
      <point x="429" y="344" type="line"/>
      <point x="438" y="340" type="line"/>
      <point x="614" y="68" type="line"/>
      <point x="612" y="61"/>
      <point x="554" y="58"/>
      <point x="510" y="58" type="curve" smooth="yes"/>
      <point x="489" y="58" type="line"/>
      <point x="471" y="0" type="line"/>
      <point x="801" y="0" type="line"/>
      <point x="819" y="58" type="line"/>
      <point x="790" y="58" type="line" smooth="yes"/>
      <point x="745" y="58"/>
      <point x="721" y="62"/>
      <point x="702" y="92" type="curve"/>
      <point x="511" y="386" type="line"/>
      <point x="500" y="390" type="line"/>
      <point x="343" y="643" type="line"/>
      <point x="344" y="649"/>
      <point x="402" y="652"/>
      <point x="446" y="652" type="curve" smooth="yes"/>
      <point x="467" y="652" type="line"/>
      <point x="485" y="710" type="line"/>
      <point x="166" y="710" type="line"/>
    </contour>
    <contour>
      <point x="-68" y="0" type="line"/>
      <point x="249" y="0" type="line"/>
      <point x="268" y="58" type="line"/>
      <point x="244" y="58" type="line" smooth="yes"/>
      <point x="199" y="58"/>
      <point x="147" y="66"/>
      <point x="150" y="75" type="curve"/>
      <point x="466" y="341" type="line"/>
      <point x="426" y="381" type="line"/>
      <point x="94" y="104" type="line" smooth="yes"/>
      <point x="49" y="67"/>
      <point x="19" y="58"/>
      <point x="-25" y="58" type="curve" smooth="yes"/>
      <point x="-49" y="58" type="line"/>
    </contour>
    <contour>
      <point x="512" y="355" type="line"/>
      <point x="821" y="607" type="line" smooth="yes"/>
      <point x="867" y="645"/>
      <point x="899" y="652"/>
      <point x="944" y="652" type="curve" smooth="yes"/>
      <point x="963" y="652" type="line"/>
      <point x="981" y="710" type="line"/>
      <point x="669" y="710" type="line"/>
      <point x="651" y="652" type="line"/>
      <point x="670" y="652" type="line" smooth="yes"/>
      <point x="715" y="652"/>
      <point x="769" y="645"/>
      <point x="766" y="635" type="curve"/>
      <point x="471" y="392" type="line"/>
    </contour>
  </outline>
</glyph>
<glyph name="Z" format="2">
  <advance width="807"/>
  <unicode hex="005A"/>
  <anchor x="421" y="741" name="top"/>
  <anchor x="421" y="0" name="bottom"/>
  <outline>
    <contour>
      <point x="43" y="56" type="line"/>
      <point x="47" y="24" type="line"/>
      <point x="808" y="644" type="line"/>
      <point x="829" y="710" type="line"/>
      <point x="201" y="710" type="line"/>
      <point x="135" y="498" type="line"/>
      <point x="206" y="498" type="line"/>
      <point x="255" y="604" type="line" smooth="yes"/>
      <point x="273" y="643"/>
      <point x="318" y="654"/>
      <point x="423" y="654" type="curve" smooth="yes"/>
      <point x="742" y="654" type="line"/>
      <point x="729" y="675" type="line"/>
      <point x="-16" y="69" type="line"/>
      <point x="-37" y="0" type="line"/>
      <point x="633" y="0" type="line"/>
      <point x="703" y="227" type="line"/>
      <point x="630" y="227" type="line"/>
      <point x="572" y="101" type="line" smooth="yes"/>
      <point x="556" y="65"/>
      <point x="511" y="56"/>
      <point x="405" y="56" type="curve" smooth="yes"/>
    </contour>
  </outline>
</glyph>
<glyph name="backslash" format="2">
  <advance width="535"/>
  <unicode hex="005C"/>
  <outline>
    <contour>
      <point x="113" y="780" type="line"/>
      <point x="31" y="780" type="line"/>
      <point x="418" y="-158" type="line"/>
      <point x="499" y="-158" type="line"/>
    </contour>
  </outline>
</glyph>
<glyph name="asciicircum" format="2">
  <advance width="664"/>
  <unicode hex="005E"/>
  <outline>
    <contour>
      <point x="149" y="314" type="line"/>
      <point x="449" y="685" type="line"/>
      <point x="450" y="710" type="line"/>
      <point x="384" y="710" type="line"/>
      <point x="55" y="314" type="line"/>
    </contour>
    <contour>
      <point x="492" y="314" type="line"/>
      <point x="585" y="314" type="line"/>
      <point x="497" y="710" type="line"/>
      <point x="428" y="710" type="line"/>
      <point x="416" y="686" type="line"/>
    </contour>
  </outline>
</glyph>
<glyph name="a" format="2">
  <advance width="800"/>
  <unicode hex="0061"/>
  <anchor x="375" y="565" name="top"/>
  <anchor x="563" y="-10" name="right"/>
  <anchor x="409" y="0" name="bottom"/>
  <outline>
    <contour>
      <point x="592" y="0" type="curve" smooth="yes"/>
      <point x="636" y="0"/>
      <point x="679" y="0"/>
      <point x="721" y="0" type="curve"/>
      <point x="733" y="57" type="line"/>
      <point x="692" y="57"/>
      <point x="651" y="57"/>
      <point x="609" y="57" type="curve" smooth="yes"/>
      <point x="591" y="57"/>
      <point x="584" y="62"/>
      <point x="584" y="73" type="curve" smooth="yes"/>
      <point x="584" y="86"/>
      <point x="599" y="131"/>
      <point x="635" y="248" type="curve" smooth="yes"/>
      <point x="732" y="565" type="line"/>
      <point x="669" y="565" type="line"/>
      <point x="590" y="400" type="line"/>
      <point x="584" y="392" type="line"/>
      <point x="521" y="184" type="line"/>
      <point x="522" y="172" type="line"/>
      <point x="516" y="116"/>
      <point x="512" y="65"/>
      <point x="512" y="53" type="curve" smooth="yes"/>
      <point x="512" y="17"/>
      <point x="541" y="0"/>
    </contour>
    <contour>
      <point x="254" y="-12" type="curve" smooth="yes"/>
      <point x="379" y="-12"/>
      <point x="481" y="78"/>
      <point x="559" y="197" type="curve"/>
      <point x="545" y="228" type="line"/>
      <point x="450" y="109"/>
      <point x="384" y="47"/>
      <point x="275" y="47" type="curve" smooth="yes"/>
      <point x="182" y="47"/>
      <point x="157" y="93"/>
      <point x="157" y="177" type="curve" smooth="yes"/>
      <point x="157" y="313"/>
      <point x="249" y="515"/>
      <point x="412" y="515" type="curve" smooth="yes"/>
      <point x="518" y="515"/>
      <point x="556" y="450"/>
      <point x="590" y="345" type="curve"/>
      <point x="619" y="374" type="line"/>
      <point x="592" y="486"/>
      <point x="540" y="575"/>
      <point x="409" y="575" type="curve" smooth="yes"/>
      <point x="185" y="575"/>
      <point x="57" y="343"/>
      <point x="57" y="177" type="curve" smooth="yes"/>
      <point x="57" y="67"/>
      <point x="109" y="-12"/>
    </contour>
  </outline>
</glyph>
<glyph name="e" format="2">
  <advance width="691"/>
  <unicode hex="0065"/>
  <anchor x="352" y="565" name="top"/>
  <anchor x="510" y="1" name="right"/>
  <anchor x="373" y="0" name="bottom"/>
  <outline>
    <contour>
      <point x="330" y="-12" type="curve" smooth="yes"/>
      <point x="454" y="-12"/>
      <point x="549" y="38"/>
      <point x="610" y="116" type="curve"/>
      <point x="557" y="147" type="line"/>
      <point x="509" y="93"/>
      <point x="445" y="46"/>
      <point x="337" y="46" type="curve" smooth="yes"/>
      <point x="222" y="46"/>
      <point x="151" y="91"/>
      <point x="151" y="207" type="curve" smooth="yes"/>
      <point x="151" y="369"/>
      <point x="247" y="517"/>
      <point x="422" y="517" type="curve" smooth="yes"/>
      <point x="508" y="517"/>
      <point x="554" y="489"/>
      <point x="554" y="432" type="curve" smooth="yes"/>
      <point x="554" y="335"/>
      <point x="449" y="280"/>
      <point x="139" y="272" type="curve"/>
      <point x="134" y="225" type="line"/>
      <point x="473" y="230"/>
      <point x="645" y="303"/>
      <point x="645" y="435" type="curve" smooth="yes"/>
      <point x="645" y="515"/>
      <point x="577" y="575"/>
      <point x="430" y="575" type="curve" smooth="yes"/>
      <point x="207" y="575"/>
      <point x="56" y="410"/>
      <point x="56" y="210" type="curve" smooth="yes"/>
      <point x="56" y="71"/>
      <point x="160" y="-12"/>
    </contour>
  </outline>
</glyph>
<glyph name="m" format="2">
  <advance width="1175"/>
  <unicode hex="006D"/>
  <anchor x="593" y="-10" name="bottom"/>
  <outline>
    <contour>
      <point x="68" y="0" type="line"/>
      <point x="208" y="461" type="line" smooth="yes"/>
      <point x="213" y="481"/>
      <point x="164" y="499"/>
      <point x="102" y="510" type="curve" smooth="yes"/>
      <point x="91" y="512" type="line"/>
      <point x="106" y="565" type="line"/>
      <point x="291" y="565" type="line"/>
      <point x="273" y="393" type="line"/>
      <point x="278" y="384" type="line"/>
      <point x="161" y="0" type="line"/>
    </contour>
    <contour>
      <point x="991" y="218" type="line" smooth="yes"/>
      <point x="958" y="121"/>
      <point x="948" y="86"/>
      <point x="948" y="74" type="curve" smooth="yes"/>
      <point x="948" y="62"/>
      <point x="956" y="57"/>
      <point x="974" y="57" type="curve" smooth="yes"/>
      <point x="1013" y="57"/>
      <point x="1054" y="57"/>
      <point x="1093" y="57" type="curve"/>
      <point x="1081" y="0" type="line"/>
      <point x="1036" y="0"/>
      <point x="992" y="0"/>
      <point x="947" y="0" type="curve" smooth="yes"/>
      <point x="887" y="0"/>
      <point x="850" y="19"/>
      <point x="850" y="57" type="curve" smooth="yes"/>
      <point x="850" y="86"/>
      <point x="863" y="117"/>
      <point x="898" y="223" type="curve" smooth="yes"/>
      <point x="953" y="386" type="line" smooth="yes"/>
      <point x="966" y="425"/>
      <point x="971" y="446"/>
      <point x="971" y="466" type="curve" smooth="yes"/>
      <point x="971" y="495"/>
      <point x="955" y="512"/>
      <point x="910" y="512" type="curve" smooth="yes"/>
      <point x="825" y="512"/>
      <point x="744" y="449"/>
      <point x="637" y="338" type="curve"/>
      <point x="627" y="371" type="line"/>
      <point x="729" y="489"/>
      <point x="823" y="575"/>
      <point x="952" y="575" type="curve" smooth="yes"/>
      <point x="1035" y="575"/>
      <point x="1070" y="541"/>
      <point x="1070" y="491" type="curve" smooth="yes"/>
      <point x="1070" y="459"/>
      <point x="1061" y="425"/>
      <point x="1047" y="383" type="curve" smooth="yes"/>
    </contour>
    <contour>
      <point x="446" y="0" type="line"/>
      <point x="572" y="391" type="line" smooth="yes"/>
      <point x="584" y="430"/>
      <point x="590" y="455"/>
      <point x="590" y="474" type="curve" smooth="yes"/>
      <point x="590" y="499"/>
      <point x="577" y="512"/>
      <point x="532" y="512" type="curve" smooth="yes"/>
      <point x="441" y="512"/>
      <point x="361" y="449"/>
      <point x="254" y="338" type="curve"/>
      <point x="244" y="371" type="line"/>
      <point x="344" y="491"/>
      <point x="437" y="575"/>
      <point x="568" y="575" type="curve" smooth="yes"/>
      <point x="638" y="575"/>
      <point x="668" y="548"/>
      <point x="668" y="505" type="curve" smooth="yes"/>
      <point x="668" y="490"/>
      <point x="660" y="375"/>
      <point x="660" y="373" type="curve" smooth="yes"/>
      <point x="541" y="0" type="line"/>
    </contour>
  </outline>
</glyph>
<glyph name="n" format="2">
  <advance width="825"/>
  <unicode hex="006E"/>
  <anchor x="409" y="565" name="top"/>
  <anchor x="417" y="0" name="bottom"/>
  <outline>
    <contour>
      <point x="68" y="0" type="line"/>
      <point x="208" y="461" type="line" smooth="yes"/>
      <point x="213" y="481"/>
      <point x="164" y="499"/>
      <point x="102" y="510" type="curve" smooth="yes"/>
      <point x="91" y="512" type="line"/>
      <point x="106" y="565" type="line"/>
      <point x="291" y="565" type="line"/>
      <point x="273" y="393" type="line"/>
      <point x="278" y="384" type="line"/>
      <point x="161" y="0" type="line"/>
    </contour>
    <contour>
      <point x="641" y="218" type="line" smooth="yes"/>
      <point x="609" y="121"/>
      <point x="599" y="86"/>
      <point x="599" y="74" type="curve" smooth="yes"/>
      <point x="599" y="62"/>
      <point x="607" y="57"/>
      <point x="624" y="57" type="curve" smooth="yes"/>
      <point x="664" y="57"/>
      <point x="704" y="57"/>
      <point x="744" y="57" type="curve"/>
      <point x="731" y="0" type="line"/>
      <point x="687" y="0"/>
      <point x="643" y="0"/>
      <point x="599" y="0" type="curve" smooth="yes"/>
      <point x="539" y="0"/>
      <point x="502" y="19"/>
      <point x="502" y="57" type="curve" smooth="yes"/>
      <point x="502" y="86"/>
      <point x="514" y="117"/>
      <point x="550" y="223" type="curve" smooth="yes"/>
      <point x="605" y="386" type="line" smooth="yes"/>
      <point x="617" y="425"/>
      <point x="623" y="445"/>
      <point x="623" y="466" type="curve" smooth="yes"/>
      <point x="623" y="495"/>
      <point x="603" y="512"/>
      <point x="551" y="512" type="curve" smooth="yes"/>
      <point x="459" y="512"/>
      <point x="371" y="448"/>
      <point x="253" y="339" type="curve"/>
      <point x="244" y="371" type="line"/>
      <point x="353" y="489"/>
      <point x="460" y="575"/>
      <point x="595" y="575" type="curve" smooth="yes"/>
      <point x="684" y="575"/>
      <point x="721" y="541"/>
      <point x="721" y="493" type="curve" smooth="yes"/>
      <point x="721" y="461"/>
      <point x="712" y="425"/>
      <point x="697" y="383" type="curve" smooth="yes"/>
    </contour>
  </outline>
</glyph>
<glyph name="q" format="2">
  <advance width="786"/>
  <unicode hex="0071"/>
  <outline>
    <contour>
      <point x="297" y="-223" type="line"/>
      <point x="626" y="-223" type="line"/>
      <point x="639" y="-176" type="line"/>
      <point x="634" y="-176" type="line" smooth="yes"/>
      <point x="569" y="-176"/>
      <point x="539" y="-160"/>
      <point x="557" y="-100" type="curve" smooth="yes"/>
      <point x="762" y="569" type="line"/>
      <point x="700" y="569" type="line"/>
      <point x="621" y="426" type="line"/>
      <point x="620" y="418" type="line"/>
      <point x="442" y="-166" type="line" smooth="yes"/>
      <point x="439" y="-173"/>
      <point x="379" y="-176"/>
      <point x="341" y="-176" type="curve" smooth="yes"/>
      <point x="310" y="-176" type="line"/>
    </contour>
    <contour>
      <point x="56" y="180" type="curve" smooth="yes"/>
      <point x="56" y="68"/>
      <point x="116" y="-12"/>
      <point x="265" y="-12" type="curve" smooth="yes"/>
      <point x="384" y="-12"/>
      <point x="491" y="72"/>
      <point x="578" y="182" type="curve"/>
      <point x="569" y="216" type="line"/>
      <point x="473" y="110"/>
      <point x="397" y="47"/>
      <point x="286" y="47" type="curve" smooth="yes"/>
      <point x="190" y="47"/>
      <point x="157" y="95"/>
      <point x="157" y="180" type="curve" smooth="yes"/>
      <point x="157" y="315"/>
      <point x="237" y="516"/>
      <point x="413" y="516" type="curve" smooth="yes"/>
      <point x="530" y="516"/>
      <point x="586" y="456"/>
      <point x="619" y="364" type="curve"/>
      <point x="646" y="392" type="line"/>
      <point x="616" y="498"/>
      <point x="544" y="576"/>
      <point x="411" y="576" type="curve" smooth="yes"/>
      <point x="177" y="576"/>
      <point x="56" y="346"/>
    </contour>
  </outline>
</glyph>
<glyph name="t" format="2">
  <advance width="555"/>
  <unicode hex="0074"/>
  <anchor x="249" y="675" name="top"/>
  <anchor x="414" y="681" name="right"/>
  <anchor x="356" y="0" name="bottom"/>
  <outline>
    <contour>
      <point x="259" y="0" type="curve" smooth="yes"/>
      <point x="312" y="0"/>
      <point x="370" y="0"/>
      <point x="413" y="0" type="curve"/>
      <point x="430" y="62" type="line"/>
      <point x="390" y="62"/>
      <point x="308" y="62"/>
      <point x="265" y="62" type="curve" smooth="yes"/>
      <point x="228" y="62"/>
      <point x="209" y="70"/>
      <point x="209" y="98" type="curve" smooth="yes"/>
      <point x="209" y="114"/>
      <point x="215" y="136"/>
      <point x="222" y="162" type="curve" smooth="yes"/>
      <point x="391" y="732" type="line"/>
      <point x="307" y="732" type="line"/>
      <point x="279" y="640" type="line" smooth="yes"/>
      <point x="257" y="569"/>
      <point x="208" y="560"/>
      <point x="120" y="560" type="curve" smooth="yes"/>
      <point x="100" y="560" type="line"/>
      <point x="84" y="507" type="line"/>
      <point x="546" y="507" type="line"/>
      <point x="564" y="565" type="line"/>
      <point x="320" y="565" type="line"/>
      <point x="245" y="552" type="line"/>
      <point x="142" y="204" type="line" smooth="yes"/>
      <point x="128" y="159"/>
      <point x="114" y="117"/>
      <point x="114" y="84" type="curve" smooth="yes"/>
      <point x="114" y="25"/>
      <point x="157" y="0"/>
    </contour>
  </outline>
</glyph>
<glyph name="u" format="2">
  <advance width="802"/>
  <unicode hex="0075"/>
  <anchor x="382" y="565" name="top"/>
  <anchor x="553" y="0" name="right"/>
  <anchor x="379" y="0" name="bottom"/>
  <outline>
    <contour>
      <point x="214" y="179" type="curve" smooth="yes"/>
      <point x="332" y="565" type="line"/>
      <point x="111" y="565" type="line"/>
      <point x="96" y="512" type="line"/>
      <point x="108" y="510" type="line" smooth="yes"/>
      <point x="170" y="500"/>
      <point x="215" y="486"/>
      <point x="210" y="467" type="curve" smooth="yes"/>
      <point x="122" y="180" type="line" smooth="yes"/>
      <point x="109" y="138"/>
      <point x="98" y="105"/>
      <point x="98" y="73" type="curve" smooth="yes"/>
      <point x="98" y="25"/>
      <point x="135" y="-10"/>
      <point x="222" y="-10" type="curve" smooth="yes"/>
      <point x="359" y="-10"/>
      <point x="463" y="75"/>
      <point x="565" y="194" type="curve"/>
      <point x="556" y="226" type="line"/>
      <point x="442" y="116"/>
      <point x="362" y="53"/>
      <point x="268" y="53" type="curve" smooth="yes"/>
      <point x="216" y="53"/>
      <point x="196" y="71"/>
      <point x="196" y="100" type="curve" smooth="yes"/>
      <point x="196" y="120"/>
      <point x="202" y="140"/>
    </contour>
    <contour>
      <point x="591" y="0" type="curve" smooth="yes"/>
      <point x="634" y="0"/>
      <point x="677" y="0"/>
      <point x="720" y="0" type="curve"/>
      <point x="733" y="57" type="line"/>
      <point x="691" y="57"/>
      <point x="649" y="57"/>
      <point x="608" y="57" type="curve" smooth="yes"/>
      <point x="590" y="57"/>
      <point x="583" y="62"/>
      <point x="583" y="73" type="curve" smooth="yes"/>
      <point x="583" y="86"/>
      <point x="598" y="131"/>
      <point x="634" y="248" type="curve" smooth="yes"/>
      <point x="730" y="565" type="line"/>
      <point x="637" y="565" type="line"/>
      <point x="516" y="169" type="line"/>
      <point x="522" y="174" type="line"/>
      <point x="513" y="109"/>
      <point x="510" y="64"/>
      <point x="510" y="53" type="curve" smooth="yes"/>
      <point x="510" y="17"/>
      <point x="539" y="0"/>
    </contour>
  </outline>
</glyph>
<glyph name="y" format="2">
  <advance width="700"/>
  <unicode hex="0079"/>
  <anchor x="341" y="565" name="top"/>
  <anchor x="349" y="-211" name="bottom"/>
  <outline>
    <contour>
      <point x="245" y="-23" type="line"/>
      <point x="166" y="462" type="line" smooth="yes"/>
      <point x="162" y="483"/>
      <point x="117" y="499"/>
      <point x="59" y="509" type="curve" smooth="yes"/>
      <point x="44" y="512" type="line"/>
      <point x="59" y="565" type="line"/>
      <point x="243" y="565" type="line"/>
      <point x="319" y="56" type="line"/>
      <point x="284" y="25" type="line"/>
    </contour>
    <contour>
      <point x="294" y="58" type="line"/>
      <point x="397" y="226"/>
      <point x="502" y="398"/>
      <point x="605" y="565" type="curve"/>
      <point x="700" y="565" type="line"/>
      <point x="700" y="556" type="line"/>
      <point x="578" y="379"/>
      <point x="457" y="202"/>
      <point x="329" y="13" type="curve" smooth="yes"/>
      <point x="191" y="-189"/>
      <point x="104" y="-232"/>
      <point x="-19" y="-232" type="curve" smooth="yes"/>
      <point x="-74" y="-232"/>
      <point x="-117" y="-219"/>
      <point x="-134" y="-211" type="curve"/>
      <point x="-113" y="-142" type="line"/>
      <point x="-95" y="-149"/>
      <point x="-50" y="-162"/>
      <point x="2" y="-162" type="curve" smooth="yes"/>
      <point x="93" y="-162"/>
      <point x="157" y="-125"/>
      <point x="270" y="45" type="curve"/>
    </contour>
  </outline>
</glyph>
<glyph name="asciitilde" format="2">
  <advance width="659"/>
  <unicode hex="007E"/>
  <outline>
    <contour>
      <point x="244" y="471" type="curve" smooth="yes"/>
      <point x="131" y="471"/>
      <point x="84" y="389"/>
      <point x="42" y="266" type="curve"/>
      <point x="106" y="252" type="line"/>
      <point x="135" y="333"/>
      <point x="161" y="403"/>
      <point x="228" y="403" type="curve" smooth="yes"/>
      <point x="324" y="403"/>
      <point x="286" y="253"/>
      <point x="441" y="253" type="curve" smooth="yes"/>
      <point x="538" y="253"/>
      <point x="595" y="324"/>
      <point x="638" y="457" type="curve"/>
      <point x="576" y="473" type="line"/>
      <point x="552" y="404"/>
      <point x="520" y="321"/>
      <point x="457" y="321" type="curve" smooth="yes"/>
      <point x="360" y="321"/>
      <point x="403" y="471"/>
    </contour>
  </outline>
</glyph>
<glyph name="dieresis" format="2">
  <advance width="613"/>
  <unicode hex="00A8"/>
  <anchor x="306" y="526" name="_top"/>
  <outline>
    <contour>
      <point x="147" y="680" type="curve" smooth="yes"/>
      <point x="192" y="680"/>
      <point x="226" y="698"/>
      <point x="226" y="744" type="curve" smooth="yes"/>
      <point x="226" y="787"/>
      <point x="192" y="806"/>
      <point x="147" y="806" type="curve" smooth="yes"/>
      <point x="100" y="806"/>
      <point x="68" y="787"/>
      <point x="68" y="744" type="curve" smooth="yes"/>
      <point x="68" y="698"/>
      <point x="100" y="680"/>
    </contour>
    <contour>
      <point x="465" y="680" type="curve" smooth="yes"/>
      <point x="511" y="680"/>
      <point x="545" y="698"/>
      <point x="545" y="744" type="curve" smooth="yes"/>
      <point x="545" y="787"/>
      <point x="511" y="806"/>
      <point x="465" y="806" type="curve" smooth="yes"/>
      <point x="418" y="806"/>
      <point x="386" y="787"/>
      <point x="386" y="744" type="curve" smooth="yes"/>
      <point x="386" y="698"/>
      <point x="418" y="680"/>
    </contour>
  </outline>
</glyph>
<glyph name="macron" format="2">
  <advance width="613"/>
  <unicode hex="00AF"/>
  <anchor x="306" y="526" name="_top"/>
  <outline>
    <contour>
      <point x="103" y="775" type="line"/>
      <point x="82" y="710" type="line"/>
      <point x="510" y="710" type="line"/>
      <point x="530" y="775" type="line"/>
    </contour>
  </outline>
</glyph>
<glyph name="Oslash" format="2">
  <advance width="988"/>
  <unicode hex="00D8"/>
  <anchor x="492" y="731" name="top"/>
  <outline>
    <contour>
      <point x="-84" y="-22" type="line"/>
      <point x="13" y="-22" type="line"/>
      <point x="1061" y="732" type="line"/>
      <point x="964" y="732" type="line"/>
    </contour>
    <contour>
      <point x="435" y="-25" type="curve" smooth="yes"/>
      <point x="782" y="-25"/>
      <point x="933" y="234"/>
      <point x="933" y="438" type="curve" smooth="yes"/>
      <point x="933" y="608"/>
      <point x="807" y="735"/>
      <point x="565" y="735" type="curve" smooth="yes"/>
      <point x="217" y="735"/>
      <point x="67" y="476"/>
      <point x="67" y="272" type="curve" smooth="yes"/>
      <point x="67" y="102"/>
      <point x="193" y="-25"/>
    </contour>
    <contour>
      <point x="439" y="33" type="curve" smooth="yes"/>
      <point x="246" y="33"/>
      <point x="172" y="104"/>
      <point x="172" y="256" type="curve" smooth="yes"/>
      <point x="172" y="308"/>
      <point x="179" y="366"/>
      <point x="203" y="424" type="curve" smooth="yes"/>
      <point x="262" y="590"/>
      <point x="381" y="677"/>
      <point x="561" y="677" type="curve" smooth="yes"/>
      <point x="753" y="677"/>
      <point x="828" y="608"/>
      <point x="828" y="454" type="curve" smooth="yes"/>
      <point x="828" y="402"/>
      <point x="820" y="344"/>
      <point x="797" y="286" type="curve" smooth="yes"/>
      <point x="738" y="120"/>
      <point x="619" y="33"/>
    </contour>
  </outline>
</glyph>
<glyph name="idieresis" format="2">
  <advance width="422"/>
  <unicode hex="00EF"/>
  <outline>
    <contour>
      <point x="121" y="680" type="curve" smooth="yes"/>
      <point x="167" y="680"/>
      <point x="201" y="698"/>
      <point x="201" y="744" type="curve" smooth="yes"/>
      <point x="201" y="787"/>
      <point x="167" y="806"/>
      <point x="121" y="806" type="curve" smooth="yes"/>
      <point x="74" y="806"/>
      <point x="42" y="787"/>
      <point x="42" y="744" type="curve" smooth="yes"/>
      <point x="42" y="698"/>
      <point x="74" y="680"/>
    </contour>
    <contour>
      <point x="413" y="680" type="curve" smooth="yes"/>
      <point x="459" y="680"/>
      <point x="493" y="698"/>
      <point x="493" y="744" type="curve" smooth="yes"/>
      <point x="493" y="787"/>
      <point x="459" y="806"/>
      <point x="413" y="806" type="curve" smooth="yes"/>
      <point x="366" y="806"/>
      <point x="334" y="787"/>
      <point x="334" y="744" type="curve" smooth="yes"/>
      <point x="334" y="698"/>
      <point x="366" y="680"/>
    </contour>
    <component base="dotlessi"/>
  </outline>
</glyph>
<glyph name="Aogonek" format="2">
  <advance width="876"/>
  <unicode hex="0104"/>
  <outline>
    <contour>
      <point x="501" y="-252" type="curve" smooth="yes"/>
      <point x="406" y="-252"/>
      <point x="355" y="-221"/>
      <point x="355" y="-162" type="curve" smooth="yes"/>
      <point x="355" y="-94"/>
      <point x="388" y="-61"/>
      <point x="648" y="46" type="curve"/>
      <point x="669" y="9" type="line"/>
      <point x="495" y="-76"/>
      <point x="459" y="-110"/>
      <point x="459" y="-155" type="curve" smooth="yes"/>
      <point x="459" y="-183"/>
      <point x="481" y="-200"/>
      <point x="525" y="-200" type="curve" smooth="yes"/>
      <point x="577" y="-200"/>
      <point x="611" y="-174"/>
      <point x="639" y="-156" type="curve"/>
      <point x="671" y="-191" type="line"/>
      <point x="625" y="-226"/>
      <point x="576" y="-252"/>
    </contour>
    <contour>
      <point x="213" y="237" type="line"/>
      <point x="251" y="292" type="line"/>
      <point x="589" y="292" type="line"/>
      <point x="595" y="237" type="line"/>
    </contour>
    <contour>
      <point x="550" y="685" type="line"/>
      <point x="128" y="81" type="line"/>
      <point x="124" y="68"/>
      <point x="162" y="58"/>
      <point x="231" y="58" type="curve" smooth="yes"/>
      <point x="243" y="58" type="line"/>
      <point x="225" y="0" type="line"/>
      <point x="-74" y="0" type="line"/>
      <point x="-57" y="58" type="line"/>
      <point x="-49" y="58" type="line" smooth="yes"/>
      <point x="1" y="58"/>
      <point x="39" y="69"/>
      <point x="76" y="122" type="curve" smooth="yes"/>
      <point x="498" y="722" type="line"/>
      <point x="622" y="722" type="line"/>
      <point x="681" y="122" type="line" smooth="yes"/>
      <point x="686" y="69"/>
      <point x="717" y="58"/>
      <point x="767" y="58" type="curve" smooth="yes"/>
      <point x="774" y="58" type="line"/>
      <point x="757" y="0" type="line"/>
      <point x="597" y="0" type="line"/>
      <point x="533" y="690" type="line"/>
    </contour>
  </outline>
</glyph>
<glyph name="hbar" format="2">
  <advance width="825"/>
  <unicode hex="0127"/>
  <outline>
    <contour>
      <point x="550" y="223" type="line" smooth="yes"/>
      <point x="514" y="117"/>
      <point x="502" y="86"/>
      <point x="502" y="57" type="curve" smooth="yes"/>
      <point x="502" y="19"/>
      <point x="539" y="0"/>
      <point x="599" y="0" type="curve" smooth="yes"/>
      <point x="643" y="0"/>
      <point x="687" y="0"/>
      <point x="731" y="0" type="curve"/>
      <point x="744" y="57" type="line"/>
      <point x="704" y="57"/>
      <point x="664" y="57"/>
      <point x="624" y="57" type="curve"/>
      <point x="607" y="57"/>
      <point x="599" y="62"/>
      <point x="599" y="74" type="curve" smooth="yes"/>
      <point x="599" y="86"/>
      <point x="609" y="121"/>
      <point x="641" y="218" type="curve" smooth="yes"/>
      <point x="699" y="388" type="line" smooth="yes"/>
      <point x="713" y="430"/>
      <point x="724" y="473"/>
      <point x="724" y="502" type="curve" smooth="yes"/>
      <point x="724" y="547"/>
      <point x="683" y="575"/>
      <point x="595" y="575" type="curve" smooth="yes"/>
      <point x="462" y="575"/>
      <point x="351" y="490"/>
      <point x="244" y="371" type="curve"/>
      <point x="255" y="339" type="line"/>
      <point x="369" y="448"/>
      <point x="456" y="513"/>
      <point x="549" y="513" type="curve" smooth="yes"/>
      <point x="606" y="513"/>
      <point x="626" y="501"/>
      <point x="626" y="475" type="curve" smooth="yes"/>
      <point x="626" y="456"/>
      <point x="619" y="430"/>
      <point x="606" y="391" type="curve" smooth="yes"/>
    </contour>
    <contour>
      <point x="68" y="0" type="line"/>
      <point x="161" y="0" type="line"/>
      <point x="397" y="780" type="line"/>
      <point x="304" y="780" type="line"/>
    </contour>
    <contour>
      <point x="629" y="653" type="line"/>
      <point x="645" y="706" type="line"/>
      <point x="177" y="706" type="line"/>
      <point x="160" y="653" type="line"/>
    </contour>
  </outline>
</glyph>
<glyph name="Iogonek" format="2">
  <advance width="495"/>
  <unicode hex="012E"/>
  <outline>
    <contour>
      <point x="250" y="39" type="line"/>
      <point x="-11" y="-72"/>
      <point x="-46" y="-103"/>
      <point x="-46" y="-164" type="curve" smooth="yes"/>
      <point x="-46" y="-221"/>
      <point x="5" y="-252"/>
      <point x="100" y="-252" type="curve" smooth="yes"/>
      <point x="175" y="-252"/>
      <point x="224" y="-226"/>
      <point x="270" y="-191" type="curve"/>
      <point x="237" y="-156" type="line"/>
      <point x="210" y="-174"/>
      <point x="176" y="-200"/>
      <point x="124" y="-200" type="curve" smooth="yes"/>
      <point x="80" y="-200"/>
      <point x="58" y="-183"/>
      <point x="58" y="-156" type="curve" smooth="yes"/>
      <point x="58" y="-113"/>
      <point x="95" y="-82"/>
      <point x="270" y="7" type="curve"/>
    </contour>
    <component base="I"/>
  </outline>
</glyph>
<glyph name="Tbar" format="2">
  <advance width="865"/>
  <unicode hex="0166"/>
  <outline>
    <contour>
      <point x="138" y="335" type="line"/>
      <point x="122" y="278" type="line"/>
      <point x="690" y="278" type="line"/>
      <point x="706" y="335" type="line"/>
    </contour>
    <component base="T"/>
  </outline>
</glyph>
<glyph name="Schwa" format="2">
  <advance width="931"/>
  <unicode hex="018F"/>
  <outline>
    <contour>
      <point x="397" y="-25" type="curve" smooth="yes"/>
      <point x="672" y="-25"/>
      <point x="865" y="194"/>
      <point x="865" y="452" type="curve" smooth="yes"/>
      <point x="865" y="636"/>
      <point x="725" y="745"/>
      <point x="501" y="745" type="curve" smooth="yes"/>
      <point x="347" y="745"/>
      <point x="235" y="696"/>
      <point x="145" y="615" type="curve"/>
      <point x="200" y="574" type="line"/>
      <point x="278" y="644"/>
      <point x="363" y="687"/>
      <point x="498" y="687" type="curve" smooth="yes"/>
      <point x="680" y="687"/>
      <point x="762" y="611"/>
      <point x="762" y="461" type="curve" smooth="yes"/>
      <point x="762" y="242"/>
      <point x="629" y="33"/>
      <point x="398" y="33" type="curve" smooth="yes"/>
      <point x="249" y="33"/>
      <point x="166" y="95"/>
      <point x="166" y="211" type="curve" smooth="yes"/>
      <point x="166" y="251"/>
      <point x="173" y="293"/>
      <point x="186" y="337" type="curve"/>
      <point x="163" y="327" type="line"/>
      <point x="763" y="327" type="line"/>
      <point x="781" y="384" type="line"/>
      <point x="95" y="384" type="line"/>
      <point x="77" y="331"/>
      <point x="67" y="279"/>
      <point x="67" y="230" type="curve" smooth="yes"/>
      <point x="67" y="78"/>
      <point x="178" y="-25"/>
    </contour>
  </outline>
</glyph>
<glyph name="iinvertedbreve" format="2">
  <advance width="422"/>
  <unicode hex="020B"/>
  <outline>
    <contour>
      <point x="264" y="831" type="curve" smooth="yes"/>
      <point x="143" y="831"/>
      <point x="81" y="792"/>
      <point x="60" y="668" type="curve"/>
      <point x="133" y="668" type="line"/>
      <point x="154" y="747"/>
      <point x="177" y="763"/>
      <point x="260" y="763" type="curve" smooth="yes"/>
      <point x="355" y="763"/>
      <point x="360" y="733"/>
      <point x="352" y="668" type="curve"/>
      <point x="426" y="668" type="line"/>
      <point x="432" y="690"/>
      <point x="433" y="701"/>
      <point x="433" y="720" type="curve" smooth="yes"/>
      <point x="433" y="789"/>
      <point x="388" y="831"/>
    </contour>
    <component base="dotlessi"/>
  </outline>
</glyph>
<glyph name="dotlessj" format="2">
  <advance width="416"/>
  <unicode hex="0237"/>
  <anchor x="185" y="565" name="top"/>
  <outline>
    <contour>
      <point x="75" y="-88" type="line" smooth="yes"/>
      <point x="53" y="-164"/>
      <point x="19" y="-192"/>
      <point x="-61" y="-192" type="curve" smooth="yes"/>
      <point x="-115" y="-192"/>
      <point x="-159" y="-178"/>
      <point x="-188" y="-168" type="curve"/>
      <point x="-206" y="-226" type="line"/>
      <point x="-185" y="-235"/>
      <point x="-130" y="-250"/>
      <point x="-66" y="-250" type="curve" smooth="yes"/>
      <point x="58" y="-250"/>
      <point x="135" y="-198"/>
      <point x="169" y="-80" type="curve" smooth="yes"/>
      <point x="353" y="565" type="line"/>
      <point x="130" y="565" type="line"/>
      <point x="115" y="511" type="line"/>
      <point x="128" y="509" type="line" smooth="yes"/>
      <point x="190" y="498"/>
      <point x="237" y="485"/>
      <point x="232" y="464" type="curve" smooth="yes"/>
    </contour>
  </outline>
</glyph>
<glyph name="ogonek" format="2">
  <advance width="696"/>
  <unicode hex="02DB"/>
  <anchor x="401" y="9" name="_right"/>
  <outline>
    <contour>
      <point x="483" y="39" type="line"/>
      <point x="222" y="-72"/>
      <point x="187" y="-103"/>
      <point x="187" y="-164" type="curve" smooth="yes"/>
      <point x="187" y="-221"/>
      <point x="238" y="-252"/>
      <point x="333" y="-252" type="curve" smooth="yes"/>
      <point x="408" y="-252"/>
      <point x="457" y="-226"/>
      <point x="504" y="-191" type="curve"/>
      <point x="471" y="-156" type="line"/>
      <point x="444" y="-174"/>
      <point x="409" y="-200"/>
      <point x="358" y="-200" type="curve" smooth="yes"/>
      <point x="314" y="-200"/>
      <point x="291" y="-183"/>
      <point x="291" y="-156" type="curve" smooth="yes"/>
      <point x="291" y="-113"/>
      <point x="329" y="-82"/>
      <point x="504" y="7" type="curve"/>
    </contour>
  </outline>
</glyph>
<glyph name="ohorntilde" format="2">
  <advance width="841"/>
  <unicode hex="1EE1"/>
  <outline>
    <contour>
      <point x="536" y="659" type="curve" smooth="yes"/>
      <point x="611" y="659"/>
      <point x="645" y="692"/>
      <point x="694" y="831" type="curve"/>
      <point x="634" y="845" type="line"/>
      <point x="600" y="762"/>
      <point x="588" y="723"/>
      <point x="543" y="723" type="curve" smooth="yes"/>
      <point x="480" y="723"/>
      <point x="490" y="840"/>
      <point x="372" y="840" type="curve" smooth="yes"/>
      <point x="297" y="840"/>
      <point x="259" y="804"/>
      <point x="213" y="671" type="curve"/>
      <point x="275" y="658" type="line"/>
      <point x="306" y="744"/>
      <point x="321" y="778"/>
      <point x="360" y="778" type="curve" smooth="yes"/>
      <point x="420" y="778"/>
      <point x="415" y="659"/>
    </contour>
    <component base="ohorn"/>
  </outline>
</glyph>
<glyph name="colonmonetary" format="2">
  <advance width="685"/>
  <unicode hex="20A1"/>
  <outline>
    <contour>
      <point x="487" y="790" type="line"/>
      <point x="424" y="671" type="line"/>
      <point x="423" y="656" type="line"/>
      <point x="127" y="96" type="line"/>
      <point x="107" y="85" type="line"/>
      <point x="-3" y="-120" type="line"/>
      <point x="69" y="-120" type="line"/>
      <point x="165" y="58" type="line"/>
      <point x="160" y="69" type="line"/>
      <point x="475" y="662" type="line"/>
      <point x="501" y="683" type="line"/>
      <point x="559" y="790" type="line"/>
    </contour>
    <contour>
      <point x="650" y="790" type="line"/>
      <point x="591" y="679" type="line"/>
      <point x="593" y="663" type="line"/>
      <point x="266" y="46" type="line"/>
      <point x="246" y="37" type="line"/>
      <point x="160" y="-120" type="line"/>
      <point x="232" y="-120" type="line"/>
      <point x="311" y="28" type="line"/>
      <point x="311" y="41" type="line"/>
      <point x="637" y="655" type="line"/>
      <point x="657" y="666" type="line"/>
      <point x="722" y="790" type="line"/>
    </contour>
    <contour>
      <point x="324" y="10" type="curve" smooth="yes"/>
      <point x="494" y="10"/>
      <point x="580" y="102"/>
      <point x="648" y="237" type="curve"/>
      <point x="588" y="257" type="line"/>
      <point x="529" y="144"/>
      <point x="467" y="60"/>
      <point x="328" y="60" type="curve" smooth="yes"/>
      <point x="190" y="60"/>
      <point x="115" y="110"/>
      <point x="115" y="232" type="curve" smooth="yes"/>
      <point x="115" y="279"/>
      <point x="119" y="314"/>
      <point x="139" y="386" type="curve" smooth="yes"/>
      <point x="187" y="551"/>
      <point x="297" y="651"/>
      <point x="483" y="651" type="curve" smooth="yes"/>
      <point x="603" y="651"/>
      <point x="675" y="626"/>
      <point x="702" y="614" type="curve"/>
      <point x="703" y="630"/>
      <point x="692" y="636"/>
      <point x="668" y="646" type="curve"/>
      <point x="613" y="467" type="line"/>
      <point x="691" y="467" type="line"/>
      <point x="748" y="653" type="line"/>
      <point x="715" y="669"/>
      <point x="611" y="700"/>
      <point x="485" y="700" type="curve" smooth="yes"/>
      <point x="142" y="700"/>
      <point x="24" y="441"/>
      <point x="24" y="245" type="curve" smooth="yes"/>
      <point x="24" y="84"/>
      <point x="145" y="10"/>
    </contour>
  </outline>
</glyph>
<glyph name="peso" format="2">
  <advance width="686"/>
  <unicode hex="20B1"/>
  <outline>
    <contour>
      <point x="78" y="496" type="line"/>
      <point x="59" y="437" type="line"/>
      <point x="189" y="437" type="line"/>
      <point x="216" y="448" type="line"/>
      <point x="557" y="448" type="line"/>
      <point x="571" y="437" type="line"/>
      <point x="716" y="437" type="line"/>
      <point x="733" y="496" type="line"/>
      <point x="603" y="496" type="line"/>
      <point x="562" y="486" type="line"/>
      <point x="224" y="486" type="line"/>
      <point x="211" y="496" type="line"/>
    </contour>
    <contour>
      <point x="-74" y="0" type="line"/>
      <point x="217" y="0" type="line"/>
      <point x="235" y="56" type="line"/>
      <point x="209" y="56" type="line" smooth="yes"/>
      <point x="172" y="56"/>
      <point x="127" y="59"/>
      <point x="129" y="66" type="curve" smooth="yes"/>
      <point x="177" y="219" type="line"/>
      <point x="273" y="219" type="line" smooth="yes"/>
      <point x="512" y="219"/>
      <point x="625" y="347"/>
      <point x="625" y="521" type="curve" smooth="yes"/>
      <point x="625" y="638"/>
      <point x="536" y="710"/>
      <point x="353" y="710" type="curve" smooth="yes"/>
      <point x="144" y="710" type="line"/>
      <point x="127" y="654" type="line"/>
      <point x="140" y="654" type="line" smooth="yes"/>
      <point x="185" y="654"/>
      <point x="217" y="647"/>
      <point x="209" y="618" type="curve" smooth="yes"/>
      <point x="48" y="92" type="line" smooth="yes"/>
      <point x="39" y="63"/>
      <point x="3" y="56"/>
      <point x="-43" y="56" type="curve" smooth="yes"/>
      <point x="-56" y="56" type="line"/>
    </contour>
    <contour>
      <point x="348" y="655" type="line" smooth="yes"/>
      <point x="482" y="655"/>
      <point x="535" y="609"/>
      <point x="535" y="525" type="curve" smooth="yes"/>
      <point x="535" y="493"/>
      <point x="531" y="466"/>
      <point x="523" y="437" type="curve" smooth="yes"/>
      <point x="488" y="318"/>
      <point x="425" y="273"/>
      <point x="278" y="273" type="curve" smooth="yes"/>
      <point x="193" y="273" type="line"/>
      <point x="310" y="655" type="line"/>
    </contour>
  </outline>
</glyph>
<glyph name="guarani" format="2">
  <advance width="685"/>
  <unicode hex="20B2"/>
  <outline>
    <contour>
      <point x="445" y="790" type="line"/>
      <point x="410" y="675" type="line"/>
      <point x="421" y="665" type="line"/>
      <point x="231" y="46" type="line"/>
      <point x="214" y="35" type="line"/>
      <point x="168" y="-120" type="line"/>
      <point x="251" y="-120" type="line"/>
      <point x="297" y="36" type="line"/>
      <point x="287" y="46" type="line"/>
      <point x="476" y="661" type="line"/>
      <point x="494" y="679" type="line"/>
      <point x="528" y="790" type="line"/>
    </contour>
    <contour>
      <point x="305" y="10" type="curve" smooth="yes"/>
      <point x="405" y="10"/>
      <point x="484" y="48"/>
      <point x="528" y="75" type="curve"/>
      <point x="587" y="267" type="line" smooth="yes"/>
      <point x="595" y="296"/>
      <point x="619" y="303"/>
      <point x="655" y="303" type="curve" smooth="yes"/>
      <point x="662" y="303" type="line"/>
      <point x="679" y="358" type="line"/>
      <point x="527" y="358" type="line"/>
      <point x="508" y="297" type="line"/>
      <point x="508" y="297" type="line"/>
      <point x="508" y="297"/>
      <point x="506" y="290"/>
      <point x="497" y="261" type="curve" smooth="yes"/>
      <point x="446" y="95" type="line"/>
      <point x="425" y="85"/>
      <point x="387" y="62"/>
      <point x="316" y="62" type="curve" smooth="yes"/>
      <point x="192" y="62"/>
      <point x="126" y="118"/>
      <point x="126" y="224" type="curve" smooth="yes"/>
      <point x="126" y="270"/>
      <point x="131" y="325"/>
      <point x="151" y="393" type="curve" smooth="yes"/>
      <point x="202" y="559"/>
      <point x="285" y="648"/>
      <point x="447" y="648" type="curve" smooth="yes"/>
      <point x="544" y="648"/>
      <point x="619" y="631"/>
      <point x="656" y="599" type="curve"/>
      <point x="667" y="618"/>
      <point x="633" y="641"/>
      <point x="609" y="656" type="curve"/>
      <point x="566" y="516" type="line"/>
      <point x="662" y="516" type="line"/>
      <point x="704" y="653" type="line"/>
      <point x="665" y="671"/>
      <point x="579" y="700"/>
      <point x="450" y="700" type="curve" smooth="yes"/>
      <point x="142" y="700"/>
      <point x="33" y="441"/>
      <point x="33" y="238" type="curve" smooth="yes"/>
      <point x="33" y="96"/>
      <point x="129" y="10"/>
    </contour>
  </outline>
</glyph>
<glyph name="radical" format="2">
  <advance width="730"/>
  <unicode hex="221A"/>
  <outline>
    <contour>
      <point x="41" y="336" type="line"/>
      <point x="231" y="336" type="line"/>
      <point x="175" y="357" type="line"/>
      <point x="184" y="0" type="line"/>
      <point x="256" y="0" type="line"/>
      <point x="273" y="22" type="line"/>
      <point x="269" y="398" type="line"/>
      <point x="60" y="398" type="line"/>
    </contour>
    <contour>
      <point x="722" y="710" type="line"/>
      <point x="240" y="0" type="line"/>
      <point x="315" y="0" type="line"/>
      <point x="804" y="710" type="line"/>
    </contour>
  </outline>
</glyph>
<glyph name="hook" format="2">
  <advance width="613"/>
  <unicode hex="2440"/>
  <anchor x="286" y="517" name="_top"/>
  <outline>
    <contour>
      <point x="112" y="803" type="line"/>
      <point x="139" y="888"/>
      <point x="211" y="925"/>
      <point x="329" y="925" type="curve" smooth="yes"/>
      <point x="453" y="925"/>
      <point x="510" y="894"/>
      <point x="510" y="820" type="curve" smooth="yes"/>
      <point x="510" y="731"/>
      <point x="419" y="697"/>
      <point x="274" y="696" type="curve"/>
      <point x="345" y="739" type="line"/>
      <point x="316" y="647" type="line"/>
      <point x="224" y="647" type="line"/>
      <point x="253" y="741" type="line"/>
      <point x="372" y="744"/>
      <point x="411" y="758"/>
      <point x="411" y="819" type="curve" smooth="yes"/>
      <point x="411" y="855"/>
      <point x="390" y="871"/>
      <point x="326" y="871" type="curve" smooth="yes"/>
      <point x="269" y="871"/>
      <point x="228" y="854"/>
      <point x="210" y="803" type="curve"/>
    </contour>
  </outline>
</glyph>
<glyph name="one.den" format="2">
  <advance width="591"/>
  <unicode hex="E403"/>
  <outline>
    <contour>
      <point x="306" y="64" type="curve" smooth="yes"/>
      <point x="413" y="415" type="line"/>
      <point x="344" y="415" type="line"/>
      <point x="303" y="368"/>
      <point x="260" y="351"/>
      <point x="151" y="350" type="curve"/>
      <point x="136" y="298" type="line"/>
      <point x="230" y="297"/>
      <point x="284" y="318"/>
      <point x="312" y="360" type="curve"/>
      <point x="319" y="367"/>
      <point x="319" y="364"/>
      <point x="303" y="360" type="curve"/>
      <point x="213" y="64" type="line" smooth="yes"/>
      <point x="206" y="42"/>
      <point x="167" y="38"/>
      <point x="115" y="38" type="curve" smooth="yes"/>
      <point x="69" y="38" type="line"/>
      <point x="58" y="0" type="line"/>
      <point x="415" y="0" type="line"/>
      <point x="427" y="38" type="line"/>
      <point x="393" y="38" type="line" smooth="yes"/>
      <point x="334" y="38"/>
      <point x="298" y="42"/>
    </contour>
  </outline>
</glyph>
<glyph name="seven.den" format="2">
  <advance width="593"/>
  <unicode hex="E409"/>
  <outline>
    <contour>
      <point x="294" y="354" type="line" smooth="yes"/>
      <point x="227" y="354"/>
      <point x="198" y="349"/>
      <point x="188" y="325" type="curve" smooth="yes"/>
      <point x="164" y="268" type="line"/>
      <point x="114" y="268" type="line"/>
      <point x="160" y="415" type="line"/>
      <point x="544" y="415" type="line"/>
      <point x="526" y="357" type="line"/>
      <point x="381" y="268"/>
      <point x="320" y="210"/>
      <point x="265" y="0" type="curve"/>
      <point x="170" y="0" type="line"/>
      <point x="222" y="187"/>
      <point x="383" y="321"/>
      <point x="492" y="366" type="curve"/>
      <point x="489" y="354" type="line"/>
    </contour>
  </outline>
</glyph>
<glyph name="f_f" format="2">
  <advance width="954"/>
  <unicode hex="FB00"/>
  <outline>
    <contour>
      <point x="93" y="565" type="line"/>
      <point x="77" y="509" type="line"/>
      <point x="574" y="509" type="line"/>
      <point x="589" y="565" type="line"/>
    </contour>
    <contour>
      <point x="447" y="714" type="curve" smooth="yes"/>
      <point x="490" y="714"/>
      <point x="522" y="707"/>
      <point x="544" y="703" type="curve"/>
      <point x="560" y="765" type="line"/>
      <point x="541" y="769"/>
      <point x="499" y="775"/>
      <point x="453" y="775" type="curve" smooth="yes"/>
      <point x="325" y="775"/>
      <point x="266" y="731"/>
      <point x="244" y="630" type="curve" smooth="yes"/>
      <point x="54" y="-223" type="line"/>
      <point x="132" y="-223" type="line"/>
      <point x="338" y="620" type="line" smooth="yes"/>
      <point x="356" y="693"/>
      <point x="377" y="714"/>
    </contour>
    <contour>
      <point x="522" y="565" type="line"/>
      <point x="506" y="509" type="line"/>
      <point x="956" y="509" type="line"/>
      <point x="971" y="565" type="line"/>
    </contour>
    <contour>
      <point x="906" y="729" type="curve" smooth="yes"/>
      <point x="972" y="729"/>
      <point x="1024" y="717"/>
      <point x="1047" y="711" type="curve"/>
      <point x="1063" y="774" type="line"/>
      <point x="1042" y="779"/>
      <point x="988" y="790"/>
      <point x="911" y="790" type="curve" smooth="yes"/>
      <point x="763" y="790"/>
      <point x="698" y="742"/>
      <point x="676" y="645" type="curve" smooth="yes"/>
      <point x="483" y="-223" type="line"/>
      <point x="561" y="-223" type="line"/>
      <point x="770" y="635" type="line" smooth="yes"/>
      <point x="788" y="706"/>
      <point x="819" y="729"/>
    </contour>
  </outline>
</glyph>
<glyph name="f_f_l" format="2">
  <advance width="1315"/>
  <unicode hex="FB04"/>
  <outline>
    <contour>
      <point x="93" y="565" type="line"/>
      <point x="77" y="509" type="line"/>
      <point x="586" y="509" type="line"/>
      <point x="602" y="565" type="line"/>
    </contour>
    <contour>
      <point x="522" y="565" type="line"/>
      <point x="506" y="509" type="line"/>
      <point x="934" y="509" type="line"/>
      <point x="949" y="565" type="line"/>
    </contour>
    <contour>
      <point x="447" y="714" type="curve" smooth="yes"/>
      <point x="490" y="714"/>
      <point x="522" y="707"/>
      <point x="544" y="703" type="curve"/>
      <point x="560" y="765" type="line"/>
      <point x="541" y="769"/>
      <point x="499" y="775"/>
      <point x="453" y="775" type="curve" smooth="yes"/>
      <point x="325" y="775"/>
      <point x="266" y="731"/>
      <point x="244" y="630" type="curve" smooth="yes"/>
      <point x="54" y="-223" type="line"/>
      <point x="132" y="-223" type="line"/>
      <point x="338" y="620" type="line" smooth="yes"/>
      <point x="356" y="693"/>
      <point x="377" y="714"/>
    </contour>
    <contour>
      <point x="1102" y="218" type="curve" smooth="yes"/>
      <point x="1270" y="780" type="line"/>
      <point x="1036" y="780" type="line"/>
      <point x="1161" y="721" type="line"/>
      <point x="1012" y="223" type="line" smooth="yes"/>
      <point x="980" y="117"/>
      <point x="969" y="86"/>
      <point x="969" y="58" type="curve" smooth="yes"/>
      <point x="969" y="20"/>
      <point x="1005" y="0"/>
      <point x="1066" y="0" type="curve"/>
      <point x="1109" y="0"/>
      <point x="1153" y="0"/>
      <point x="1197" y="0" type="curve"/>
      <point x="1209" y="57" type="line"/>
      <point x="1169" y="57"/>
      <point x="1130" y="57"/>
      <point x="1089" y="57" type="curve" smooth="yes"/>
      <point x="1071" y="57"/>
      <point x="1063" y="62"/>
      <point x="1063" y="74" type="curve" smooth="yes"/>
      <point x="1063" y="86"/>
      <point x="1072" y="121"/>
    </contour>
    <contour>
      <point x="941" y="731" type="curve" smooth="yes"/>
      <point x="1037" y="731"/>
      <point x="1116" y="714"/>
      <point x="1168" y="698" type="curve"/>
      <point x="1182" y="746" type="line"/>
      <point x="1136" y="764"/>
      <point x="1051" y="790"/>
      <point x="943" y="790" type="curve" smooth="yes"/>
      <point x="775" y="790"/>
      <point x="698" y="744"/>
      <point x="676" y="645" type="curve" smooth="yes"/>
      <point x="483" y="-223" type="line"/>
      <point x="561" y="-223" type="line"/>
      <point x="770" y="635" type="line" smooth="yes"/>
      <point x="787" y="706"/>
      <point x="821" y="731"/>
    </contour>
  </outline>
</glyph>
<glyph name="Euro.proportional" format="2">
  <advance width="871"/>
  <outline>
    <contour>
      <point x="459" y="-25" type="curve" smooth="yes"/>
      <point x="623" y="-25"/>
      <point x="717" y="45"/>
      <point x="791" y="167" type="curve"/>
      <point x="729" y="193" type="line"/>
      <point x="668" y="98"/>
      <point x="604" y="32"/>
      <point x="468" y="32" type="curve" smooth="yes"/>
      <point x="331" y="32"/>
      <point x="263" y="76"/>
      <point x="263" y="218" type="curve" smooth="yes"/>
      <point x="263" y="290"/>
      <point x="271" y="359"/>
      <point x="291" y="428" type="curve" smooth="yes"/>
      <point x="336" y="582"/>
      <point x="446" y="678"/>
      <point x="629" y="678" type="curve" smooth="yes"/>
      <point x="716" y="678"/>
      <point x="775" y="667"/>
      <point x="826" y="647" type="curve"/>
      <point x="820" y="656"/>
      <point x="805" y="677"/>
      <point x="770" y="677" type="curve"/>
      <point x="735" y="563" type="line"/>
      <point x="831" y="563" type="line"/>
      <point x="874" y="700" type="line"/>
      <point x="848" y="710"/>
      <point x="770" y="735"/>
      <point x="633" y="735" type="curve" smooth="yes"/>
      <point x="300" y="735"/>
      <point x="166" y="496"/>
      <point x="166" y="228" type="curve" smooth="yes"/>
      <point x="166" y="52"/>
      <point x="273" y="-25"/>
    </contour>
    <contour>
      <point x="29" y="284" type="line"/>
      <point x="13" y="229" type="line"/>
      <point x="570" y="229" type="line"/>
      <point x="586" y="284" type="line"/>
    </contour>
    <contour>
      <point x="84" y="463" type="line"/>
      <point x="67" y="408" type="line"/>
      <point x="661" y="408" type="line"/>
      <point x="678" y="463" type="line"/>
    </contour>
  </outline>
</glyph>
<glyph name="bar.uc" format="2">
  <advance width="420"/>
  <outline>
    <contour>
      <point x="170" y="760" type="line"/>
      <point x="170" y="-60" type="line"/>
      <point x="250" y="-60" type="line"/>
      <point x="250" y="760" type="line"/>
    </contour>
  </outline>
</glyph>
<glyph name="breve_hook.uc" format="2">
  <advance width="635"/>
  <anchor x="313" y="724" name="_top"/>
  <outline>
    <contour>
      <point x="163" y="1088" type="line"/>
      <point x="187" y="1166"/>
      <point x="272" y="1197"/>
      <point x="364" y="1197" type="curve" smooth="yes"/>
      <point x="477" y="1197"/>
      <point x="532" y="1166"/>
      <point x="532" y="1104" type="curve" smooth="yes"/>
      <point x="532" y="1034"/>
      <point x="448" y="1000"/>
      <point x="314" y="997" type="curve"/>
      <point x="379" y="1033" type="line"/>
      <point x="353" y="951" type="line"/>
      <point x="268" y="951" type="line"/>
      <point x="293" y="1036" type="line"/>
      <point x="400" y="1038"/>
      <point x="438" y="1053"/>
      <point x="438" y="1103" type="curve" smooth="yes"/>
      <point x="438" y="1132"/>
      <point x="419" y="1147"/>
      <point x="361" y="1147" type="curve" smooth="yes"/>
      <point x="307" y="1147"/>
      <point x="272" y="1133"/>
      <point x="257" y="1088" type="curve"/>
    </contour>
    <contour>
      <point x="298" y="796" type="curve" smooth="yes"/>
      <point x="155" y="796"/>
      <point x="108" y="843"/>
      <point x="108" y="912" type="curve" smooth="yes"/>
      <point x="108" y="931"/>
      <point x="110" y="944"/>
      <point x="115" y="962" type="curve"/>
      <point x="185" y="962" type="line"/>
      <point x="177" y="897"/>
      <point x="188" y="869"/>
      <point x="306" y="869" type="curve" smooth="yes"/>
      <point x="398" y="869"/>
      <point x="429" y="883"/>
      <point x="450" y="962" type="curve"/>
      <point x="521" y="962" type="line"/>
      <point x="499" y="837"/>
      <point x="427" y="796"/>
    </contour>
  </outline>
</glyph>
<glyph name="caron.alt" format="2">
  <advance width="613"/>
  <anchor x="143" y="574" name="_right"/>
  <outline>
    <contour>
      <point x="275" y="517" type="line"/>
      <point x="204" y="517" type="line"/>
      <point x="212" y="541" type="line"/>
      <point x="278" y="710" type="line"/>
      <point x="398" y="710" type="line"/>
    </contour>
  </outline>
</glyph>
<glyph name="cent.alt" format="2">
  <advance width="686"/>
  <outline>
    <contour>
      <point x="425" y="575" type="curve" smooth="yes"/>
      <point x="173" y="575"/>
      <point x="37" y="401"/>
      <point x="37" y="217" type="curve" smooth="yes"/>
      <point x="37" y="83"/>
      <point x="145" y="-13"/>
      <point x="330" y="-13" type="curve" smooth="yes"/>
      <point x="446" y="-13"/>
      <point x="545" y="42"/>
      <point x="602" y="115" type="curve"/>
      <point x="547" y="148" type="line"/>
      <point x="495" y="92"/>
      <point x="437" y="44"/>
      <point x="336" y="44" type="curve" smooth="yes"/>
      <point x="216" y="44"/>
      <point x="135" y="91"/>
      <point x="135" y="210" type="curve" smooth="yes"/>
      <point x="135" y="367"/>
      <point x="216" y="518"/>
      <point x="423" y="518" type="curve" smooth="yes"/>
      <point x="539" y="518"/>
      <point x="593" y="497"/>
      <point x="633" y="484" type="curve"/>
      <point x="634" y="491"/>
      <point x="617" y="509"/>
      <point x="584" y="522" type="curve"/>
      <point x="540" y="373" type="line"/>
      <point x="632" y="373" type="line"/>
      <point x="679" y="530" type="line"/>
      <point x="650" y="545"/>
      <point x="561" y="575"/>
    </contour>
    <contour>
      <point x="238" y="11" type="line"/>
      <point x="185" y="-166" type="line"/>
      <point x="268" y="-166" type="line"/>
      <point x="323" y="18" type="line"/>
    </contour>
    <contour>
      <point x="447" y="703" type="line"/>
      <point x="402" y="548" type="line"/>
      <point x="488" y="555" type="line"/>
      <point x="532" y="703" type="line"/>
    </contour>
  </outline>
</glyph>
<glyph name="circumflex_hook" format="2">
  <advance width="646"/>
  <anchor x="332" y="559" name="_top"/>
  <outline>
    <contour>
      <point x="424" y="938" type="line"/>
      <point x="449" y="1015"/>
      <point x="524" y="1047"/>
      <point x="622" y="1047" type="curve" smooth="yes"/>
      <point x="728" y="1047"/>
      <point x="789" y="1018"/>
      <point x="789" y="950" type="curve" smooth="yes"/>
      <point x="789" y="868"/>
      <point x="699" y="835"/>
      <point x="565" y="834" type="curve"/>
      <point x="629" y="873" type="line"/>
      <point x="603" y="785" type="line"/>
      <point x="520" y="785" type="line"/>
      <point x="547" y="874" type="line"/>
      <point x="649" y="875"/>
      <point x="697" y="892"/>
      <point x="697" y="947" type="curve" smooth="yes"/>
      <point x="697" y="982"/>
      <point x="675" y="997"/>
      <point x="620" y="997" type="curve" smooth="yes"/>
      <point x="561" y="997"/>
      <point x="532" y="981"/>
      <point x="517" y="938" type="curve"/>
    </contour>
    <component base="circumflex"/>
  </outline>
</glyph>
<glyph name="commaaccent" format="2">
  <advance width="443"/>
  <anchor x="207" y="33" name="_bottom"/>
  <outline>
    <contour>
      <point x="68" y="-342" type="line"/>
      <point x="226" y="-324"/>
      <point x="301" y="-255"/>
      <point x="301" y="-160" type="curve" smooth="yes"/>
      <point x="301" y="-117"/>
      <point x="275" y="-92"/>
      <point x="204" y="-92" type="curve" smooth="yes"/>
      <point x="142" y="-92"/>
      <point x="114" y="-116"/>
      <point x="114" y="-148" type="curve" smooth="yes"/>
      <point x="114" y="-181"/>
      <point x="146" y="-196"/>
      <point x="194" y="-196" type="curve" smooth="yes"/>
      <point x="219" y="-196"/>
      <point x="239" y="-192"/>
      <point x="251" y="-185" type="curve"/>
      <point x="244" y="-174"/>
      <point x="242" y="-177"/>
      <point x="238" y="-186" type="curve"/>
      <point x="217" y="-254"/>
      <point x="161" y="-278"/>
      <point x="46" y="-288" type="curve"/>
    </contour>
  </outline>
</glyph>
<glyph name="dieresis.uc" format="2">
  <advance width="613"/>
  <anchor x="307" y="694" name="_top"/>
  <outline>
    <contour>
      <point x="155" y="794" type="curve" smooth="yes"/>
      <point x="201" y="794"/>
      <point x="235" y="812"/>
      <point x="235" y="858" type="curve" smooth="yes"/>
      <point x="235" y="901"/>
      <point x="201" y="920"/>
      <point x="155" y="920" type="curve" smooth="yes"/>
      <point x="108" y="920"/>
      <point x="76" y="901"/>
      <point x="76" y="858" type="curve" smooth="yes"/>
      <point x="76" y="812"/>
      <point x="108" y="794"/>
    </contour>
    <contour>
      <point x="465" y="794" type="curve" smooth="yes"/>
      <point x="511" y="794"/>
      <point x="545" y="812"/>
      <point x="545" y="858" type="curve" smooth="yes"/>
      <point x="545" y="901"/>
      <point x="511" y="920"/>
      <point x="465" y="920" type="curve" smooth="yes"/>
      <point x="418" y="920"/>
      <point x="386" y="901"/>
      <point x="386" y="858" type="curve" smooth="yes"/>
      <point x="386" y="812"/>
      <point x="418" y="794"/>
    </contour>
  </outline>
</glyph>
<glyph name="dollar.altprop" format="2">
  <advance width="736"/>
  <outline>
    <contour>
      <point x="320" y="1" type="curve" smooth="yes"/>
      <point x="521" y="1"/>
      <point x="652" y="70"/>
      <point x="652" y="205" type="curve" smooth="yes"/>
      <point x="652" y="319"/>
      <point x="539" y="351"/>
      <point x="426" y="390" type="curve" smooth="yes"/>
      <point x="299" y="434"/>
      <point x="233" y="450"/>
      <point x="233" y="528" type="curve" smooth="yes"/>
      <point x="233" y="613"/>
      <point x="304" y="650"/>
      <point x="443" y="650" type="curve" smooth="yes"/>
      <point x="562" y="650"/>
      <point x="646" y="623"/>
      <point x="692" y="599" type="curve"/>
      <point x="690" y="615"/>
      <point x="666" y="640"/>
      <point x="638" y="651" type="curve"/>
      <point x="589" y="496" type="line"/>
      <point x="686" y="494" type="line"/>
      <point x="735" y="652" type="line"/>
      <point x="704" y="668"/>
      <point x="604" y="703"/>
      <point x="445" y="703" type="curve" smooth="yes"/>
      <point x="238" y="703"/>
      <point x="143" y="630"/>
      <point x="143" y="518" type="curve" smooth="yes"/>
      <point x="143" y="412"/>
      <point x="231" y="376"/>
      <point x="349" y="337" type="curve" smooth="yes"/>
      <point x="488" y="291"/>
      <point x="559" y="273"/>
      <point x="559" y="196" type="curve" smooth="yes"/>
      <point x="559" y="95"/>
      <point x="467" y="54"/>
      <point x="321" y="54" type="curve" smooth="yes"/>
      <point x="193" y="54"/>
      <point x="86" y="87"/>
      <point x="43" y="114" type="curve"/>
      <point x="41" y="111"/>
      <point x="61" y="69"/>
      <point x="91" y="65" type="curve"/>
      <point x="140" y="223" type="line"/>
      <point x="43" y="223" type="line"/>
      <point x="-5" y="65" type="line"/>
      <point x="34" y="44"/>
      <point x="155" y="1"/>
    </contour>
    <contour>
      <point x="182" y="-150" type="line"/>
      <point x="268" y="-150" type="line"/>
      <point x="321" y="22" type="line"/>
      <point x="235" y="23" type="line"/>
    </contour>
    <contour>
      <point x="437" y="684" type="line"/>
      <point x="524" y="686" type="line"/>
      <point x="565" y="819" type="line"/>
      <point x="479" y="819" type="line"/>
    </contour>
  </outline>
</glyph>
<glyph name="f_f_h.alt" format="2">
  <advance width="1702"/>
  <outline>
    <contour>
      <point x="522" y="565" type="line"/>
      <point x="506" y="509" type="line"/>
      <point x="934" y="509" type="line"/>
      <point x="949" y="565" type="line"/>
    </contour>
    <contour>
      <point x="561" y="-223" type="line"/>
      <point x="770" y="635" type="line" smooth="yes"/>
      <point x="787" y="706"/>
      <point x="821" y="731"/>
      <point x="941" y="731" type="curve" smooth="yes"/>
      <point x="1037" y="731"/>
      <point x="1116" y="714"/>
      <point x="1168" y="698" type="curve"/>
      <point x="1182" y="746" type="line"/>
      <point x="1136" y="764"/>
      <point x="1051" y="790"/>
      <point x="943" y="790" type="curve" smooth="yes"/>
      <point x="775" y="790"/>
      <point x="698" y="744"/>
      <point x="676" y="645" type="curve" smooth="yes"/>
      <point x="483" y="-223" type="line"/>
    </contour>
    <contour>
      <point x="1037" y="0" type="line"/>
      <point x="1273" y="780" type="line"/>
      <point x="1013" y="780" type="line"/>
      <point x="1162" y="721" type="line"/>
      <point x="944" y="0" type="line"/>
    </contour>
    <contour>
      <point x="1426" y="223" type="line" smooth="yes"/>
      <point x="1390" y="117"/>
      <point x="1378" y="86"/>
      <point x="1378" y="57" type="curve" smooth="yes"/>
      <point x="1378" y="19"/>
      <point x="1415" y="0"/>
      <point x="1475" y="0" type="curve" smooth="yes"/>
      <point x="1519" y="0"/>
      <point x="1563" y="0"/>
      <point x="1607" y="0" type="curve"/>
      <point x="1620" y="57" type="line"/>
      <point x="1580" y="57"/>
      <point x="1540" y="57"/>
      <point x="1500" y="57" type="curve" smooth="yes"/>
      <point x="1483" y="57"/>
      <point x="1475" y="62"/>
      <point x="1475" y="74" type="curve" smooth="yes"/>
      <point x="1475" y="86"/>
      <point x="1485" y="121"/>
      <point x="1517" y="218" type="curve" smooth="yes"/>
      <point x="1575" y="388" type="line" smooth="yes"/>
      <point x="1589" y="430"/>
      <point x="1600" y="473"/>
      <point x="1600" y="502" type="curve" smooth="yes"/>
      <point x="1600" y="547"/>
      <point x="1559" y="575"/>
      <point x="1471" y="575" type="curve" smooth="yes"/>
      <point x="1336" y="575"/>
      <point x="1229" y="489"/>
      <point x="1120" y="371" type="curve"/>
      <point x="1130" y="339" type="line"/>
      <point x="1247" y="448"/>
      <point x="1335" y="512"/>
      <point x="1428" y="512" type="curve" smooth="yes"/>
      <point x="1481" y="512"/>
      <point x="1502" y="499"/>
      <point x="1502" y="474" type="curve" smooth="yes"/>
      <point x="1502" y="455"/>
      <point x="1495" y="430"/>
      <point x="1482" y="391" type="curve" smooth="yes"/>
    </contour>
    <contour>
      <point x="93" y="565" type="line"/>
      <point x="77" y="509" type="line"/>
      <point x="553" y="509" type="line"/>
      <point x="568" y="565" type="line"/>
    </contour>
    <contour>
      <point x="789" y="722" type="line"/>
      <point x="758" y="741"/>
      <point x="667" y="775"/>
      <point x="532" y="775" type="curve" smooth="yes"/>
      <point x="345" y="775"/>
      <point x="266" y="728"/>
      <point x="243" y="627" type="curve" smooth="yes"/>
      <point x="54" y="-223" type="line"/>
      <point x="132" y="-223" type="line"/>
      <point x="337" y="618" type="line" smooth="yes"/>
      <point x="356" y="696"/>
      <point x="400" y="719"/>
      <point x="527" y="719" type="curve" smooth="yes"/>
      <point x="640" y="719"/>
      <point x="714" y="695"/>
      <point x="751" y="670" type="curve"/>
      <point x="746" y="694"/>
      <point x="733" y="721"/>
      <point x="695" y="724" type="curve"/>
      <point x="674" y="635" type="line"/>
      <point x="760" y="636" type="line"/>
    </contour>
  </outline>
</glyph>
<glyph name="f_f_l.alt" format="2">
  <advance width="1315"/>
  <outline>
    <contour>
      <point x="93" y="565" type="line"/>
      <point x="77" y="509" type="line"/>
      <point x="553" y="509" type="line"/>
      <point x="568" y="565" type="line"/>
    </contour>
    <contour>
      <point x="522" y="565" type="line"/>
      <point x="506" y="509" type="line"/>
      <point x="934" y="509" type="line"/>
      <point x="949" y="565" type="line"/>
    </contour>
    <contour>
      <point x="1102" y="218" type="curve" smooth="yes"/>
      <point x="1270" y="780" type="line"/>
      <point x="1027" y="780" type="line"/>
      <point x="1161" y="721" type="line"/>
      <point x="1012" y="223" type="line" smooth="yes"/>
      <point x="980" y="117"/>
      <point x="969" y="86"/>
      <point x="969" y="58" type="curve" smooth="yes"/>
      <point x="969" y="20"/>
      <point x="1005" y="0"/>
      <point x="1066" y="0" type="curve" smooth="yes"/>
      <point x="1109" y="0"/>
      <point x="1153" y="0"/>
      <point x="1197" y="0" type="curve"/>
      <point x="1209" y="57" type="line"/>
      <point x="1169" y="57"/>
      <point x="1130" y="57"/>
      <point x="1089" y="57" type="curve" smooth="yes"/>
      <point x="1071" y="57"/>
      <point x="1063" y="62"/>
      <point x="1063" y="74" type="curve" smooth="yes"/>
      <point x="1063" y="86"/>
      <point x="1072" y="121"/>
    </contour>
    <contour>
      <point x="527" y="719" type="curve" smooth="yes"/>
      <point x="640" y="719"/>
      <point x="714" y="695"/>
      <point x="751" y="670" type="curve"/>
      <point x="748" y="693"/>
      <point x="735" y="720"/>
      <point x="695" y="724" type="curve"/>
      <point x="674" y="635" type="line"/>
      <point x="760" y="636" type="line"/>
      <point x="789" y="722" type="line"/>
      <point x="758" y="741"/>
      <point x="667" y="775"/>
      <point x="532" y="775" type="curve" smooth="yes"/>
      <point x="345" y="775"/>
      <point x="266" y="728"/>
      <point x="243" y="627" type="curve" smooth="yes"/>
      <point x="54" y="-223" type="line"/>
      <point x="132" y="-223" type="line"/>
      <point x="337" y="618" type="line" smooth="yes"/>
      <point x="356" y="696"/>
      <point x="400" y="719"/>
    </contour>
    <contour>
      <point x="941" y="731" type="curve" smooth="yes"/>
      <point x="1037" y="731"/>
      <point x="1116" y="714"/>
      <point x="1168" y="698" type="curve"/>
      <point x="1182" y="746" type="line"/>
      <point x="1136" y="764"/>
      <point x="1051" y="790"/>
      <point x="943" y="790" type="curve" smooth="yes"/>
      <point x="775" y="790"/>
      <point x="698" y="744"/>
      <point x="676" y="645" type="curve" smooth="yes"/>
      <point x="483" y="-223" type="line"/>
      <point x="561" y="-223" type="line"/>
      <point x="770" y="635" type="line" smooth="yes"/>
      <point x="787" y="706"/>
      <point x="821" y="731"/>
    </contour>
  </outline>
</glyph>
<glyph name="f_i.alt" format="2">
  <advance width="874"/>
  <outline>
    <contour>
      <point x="540" y="734" type="curve" smooth="yes"/>
      <point x="627" y="734"/>
      <point x="696" y="720"/>
      <point x="735" y="708" type="curve"/>
      <point x="733" y="720"/>
      <point x="721" y="736"/>
      <point x="683" y="738" type="curve"/>
      <point x="659" y="651" type="line"/>
      <point x="754" y="651" type="line"/>
      <point x="785" y="759" type="line"/>
      <point x="749" y="771"/>
      <point x="660" y="790"/>
      <point x="552" y="790" type="curve" smooth="yes"/>
      <point x="352" y="790"/>
      <point x="269" y="742"/>
      <point x="247" y="642" type="curve" smooth="yes"/>
      <point x="54" y="-223" type="line"/>
      <point x="132" y="-223" type="line"/>
      <point x="340" y="632" type="line" smooth="yes"/>
      <point x="359" y="708"/>
      <point x="406" y="734"/>
    </contour>
    <contour>
      <point x="93" y="565" type="line"/>
      <point x="77" y="509" type="line"/>
      <point x="518" y="509" type="line" smooth="yes"/>
      <point x="593" y="509"/>
      <point x="663" y="489"/>
      <point x="656" y="466" type="curve" smooth="yes"/>
      <point x="584" y="223" type="line" smooth="yes"/>
      <point x="551" y="117"/>
      <point x="541" y="86"/>
      <point x="541" y="58" type="curve" smooth="yes"/>
      <point x="541" y="20"/>
      <point x="577" y="0"/>
      <point x="637" y="0" type="curve" smooth="yes"/>
      <point x="681" y="0"/>
      <point x="725" y="0"/>
      <point x="769" y="0" type="curve"/>
      <point x="781" y="57" type="line"/>
      <point x="740" y="57"/>
      <point x="701" y="57"/>
      <point x="660" y="57" type="curve" smooth="yes"/>
      <point x="643" y="57"/>
      <point x="635" y="62"/>
      <point x="635" y="74" type="curve" smooth="yes"/>
      <point x="635" y="86"/>
      <point x="644" y="121"/>
      <point x="673" y="218" type="curve" smooth="yes"/>
      <point x="777" y="565" type="line"/>
    </contour>
  </outline>
</glyph>
<glyph name="f_j" format="2">
  <advance width="837"/>
  <outline>
    <contour>
      <point x="746" y="680" type="curve" smooth="yes"/>
      <point x="791" y="680"/>
      <point x="826" y="698"/>
      <point x="826" y="744" type="curve" smooth="yes"/>
      <point x="826" y="787"/>
      <point x="791" y="806"/>
      <point x="746" y="806" type="curve" smooth="yes"/>
      <point x="699" y="806"/>
      <point x="667" y="787"/>
      <point x="667" y="744" type="curve" smooth="yes"/>
      <point x="667" y="698"/>
      <point x="699" y="680"/>
    </contour>
    <contour>
      <point x="448" y="729" type="curve" smooth="yes"/>
      <point x="490" y="729"/>
      <point x="518" y="723"/>
      <point x="540" y="719" type="curve"/>
      <point x="557" y="780" type="line"/>
      <point x="536" y="785"/>
      <point x="498" y="790"/>
      <point x="454" y="790" type="curve" smooth="yes"/>
      <point x="328" y="790"/>
      <point x="270" y="747"/>
      <point x="247" y="645" type="curve" smooth="yes"/>
      <point x="54" y="-223" type="line"/>
      <point x="132" y="-223" type="line"/>
      <point x="341" y="635" type="line" smooth="yes"/>
      <point x="359" y="707"/>
      <point x="380" y="729"/>
    </contour>
    <contour>
      <point x="505" y="-88" type="line" smooth="yes"/>
      <point x="485" y="-164"/>
      <point x="462" y="-192"/>
      <point x="390" y="-192" type="curve" smooth="yes"/>
      <point x="349" y="-192"/>
      <point x="314" y="-182"/>
      <point x="285" y="-172" type="curve"/>
      <point x="268" y="-230" type="line"/>
      <point x="290" y="-239"/>
      <point x="336" y="-250"/>
      <point x="388" y="-250" type="curve" smooth="yes"/>
      <point x="504" y="-250"/>
      <point x="567" y="-199"/>
      <point x="600" y="-80" type="curve" smooth="yes"/>
      <point x="775" y="565" type="line"/>
      <point x="93" y="565" type="line"/>
      <point x="77" y="509" type="line"/>
      <point x="517" y="509" type="line" smooth="yes"/>
      <point x="592" y="509"/>
      <point x="660" y="489"/>
      <point x="654" y="466" type="curve" smooth="yes"/>
    </contour>
  </outline>
</glyph>
<glyph name="f_l" format="2">
  <advance width="886"/>
  <outline>
    <contour>
      <point x="93" y="565" type="line"/>
      <point x="77" y="509" type="line"/>
      <point x="505" y="509" type="line"/>
      <point x="520" y="565" type="line"/>
    </contour>
    <contour>
      <point x="673" y="218" type="curve" smooth="yes"/>
      <point x="842" y="780" type="line"/>
      <point x="607" y="780" type="line"/>
      <point x="732" y="721" type="line"/>
      <point x="583" y="223" type="line" smooth="yes"/>
      <point x="552" y="117"/>
      <point x="540" y="86"/>
      <point x="540" y="58" type="curve" smooth="yes"/>
      <point x="540" y="20"/>
      <point x="577" y="0"/>
      <point x="637" y="0" type="curve"/>
      <point x="681" y="0"/>
      <point x="725" y="0"/>
      <point x="768" y="0" type="curve"/>
      <point x="781" y="57" type="line"/>
      <point x="740" y="57"/>
      <point x="701" y="57"/>
      <point x="660" y="57" type="curve"/>
      <point x="643" y="57"/>
      <point x="635" y="62"/>
      <point x="635" y="74" type="curve" smooth="yes"/>
      <point x="635" y="86"/>
      <point x="644" y="121"/>
    </contour>
    <contour>
      <point x="512" y="731" type="curve" smooth="yes"/>
      <point x="608" y="731"/>
      <point x="687" y="714"/>
      <point x="740" y="698" type="curve"/>
      <point x="753" y="746" type="line"/>
      <point x="707" y="764"/>
      <point x="622" y="790"/>
      <point x="514" y="790" type="curve" smooth="yes"/>
      <point x="346" y="790"/>
      <point x="269" y="744"/>
      <point x="247" y="645" type="curve" smooth="yes"/>
      <point x="54" y="-223" type="line"/>
      <point x="132" y="-223" type="line"/>
      <point x="341" y="635" type="line" smooth="yes"/>
      <point x="358" y="706"/>
      <point x="393" y="731"/>
    </contour>
  </outline>
</glyph>
<glyph name="five.oldprop" format="2">
  <advance width="695"/>
  <outline>
    <contour>
      <point x="-25" y="33" type="curve"/>
      <point x="44" y="57" type="line"/>
      <point x="77" y="-12"/>
      <point x="126" y="-76"/>
      <point x="279" y="-76" type="curve" smooth="yes"/>
      <point x="447" y="-76"/>
      <point x="512" y="42"/>
      <point x="512" y="176" type="curve" smooth="yes"/>
      <point x="512" y="257"/>
      <point x="465" y="301"/>
      <point x="363" y="301" type="curve" smooth="yes"/>
      <point x="269" y="301"/>
      <point x="216" y="272"/>
      <point x="163" y="215" type="curve"/>
      <point x="96" y="215" type="line"/>
      <point x="214" y="598" type="line"/>
      <point x="666" y="598" type="line"/>
      <point x="623" y="529" type="line"/>
      <point x="235" y="529" type="line"/>
      <point x="277" y="578" type="line"/>
      <point x="173" y="246" type="line"/>
      <point x="154" y="244" type="line"/>
      <point x="211" y="319"/>
      <point x="290" y="356"/>
      <point x="382" y="356" type="curve" smooth="yes"/>
      <point x="536" y="356"/>
      <point x="612" y="279"/>
      <point x="612" y="174" type="curve" smooth="yes"/>
      <point x="612" y="9"/>
      <point x="493" y="-131"/>
      <point x="273" y="-131" type="curve" smooth="yes"/>
      <point x="89" y="-131"/>
      <point x="11" y="-56"/>
    </contour>
  </outline>
</glyph>
<glyph name="five.oldtab" format="2">
  <advance width="686"/>
  <outline>
    <contour>
      <point x="269" y="-131" type="curve" smooth="yes"/>
      <point x="480" y="-131"/>
      <point x="586" y="22"/>
      <point x="586" y="183" type="curve" smooth="yes"/>
      <point x="586" y="296"/>
      <point x="504" y="356"/>
      <point x="386" y="356" type="curve" smooth="yes"/>
      <point x="282" y="356"/>
      <point x="212" y="310"/>
      <point x="149" y="221" type="curve"/>
      <point x="178" y="236" type="line"/>
      <point x="282" y="578" type="line"/>
      <point x="241" y="529" type="line"/>
      <point x="606" y="529" type="line"/>
      <point x="653" y="598" type="line"/>
      <point x="220" y="598" type="line"/>
      <point x="98" y="202" type="line"/>
      <point x="163" y="202" type="line"/>
      <point x="220" y="268"/>
      <point x="284" y="301"/>
      <point x="366" y="301" type="curve" smooth="yes"/>
      <point x="443" y="301"/>
      <point x="487" y="260"/>
      <point x="487" y="187" type="curve" smooth="yes"/>
      <point x="487" y="52"/>
      <point x="425" y="-76"/>
      <point x="270" y="-76" type="curve" smooth="yes"/>
      <point x="130" y="-76"/>
      <point x="95" y="2"/>
      <point x="74" y="63" type="curve"/>
      <point x="2" y="36" type="line"/>
      <point x="31" y="-54"/>
      <point x="102" y="-131"/>
    </contour>
  </outline>
</glyph>
<glyph name="four.lintab" format="2">
  <advance width="686"/>
  <outline>
    <contour>
      <point x="4" y="216" type="line"/>
      <point x="622" y="216" type="line"/>
      <point x="639" y="276" type="line"/>
      <point x="57" y="276" type="line"/>
      <point x="59" y="241" type="line"/>
      <point x="543" y="686" type="line"/>
      <point x="561" y="710" type="line"/>
      <point x="486" y="710" type="line"/>
      <point x="25" y="287" type="line"/>
    </contour>
    <contour>
      <point x="441" y="92" type="curve" smooth="yes"/>
      <point x="630" y="710" type="line"/>
      <point x="532" y="710" type="line"/>
      <point x="533" y="698" type="line"/>
      <point x="348" y="92" type="line" smooth="yes"/>
      <point x="339" y="63"/>
      <point x="292" y="56"/>
      <point x="233" y="56" type="curve" smooth="yes"/>
      <point x="207" y="56" type="line"/>
      <point x="189" y="0" type="line"/>
      <point x="540" y="0" type="line"/>
      <point x="558" y="56" type="line"/>
      <point x="534" y="56" type="line" smooth="yes"/>
      <point x="474" y="56"/>
      <point x="432" y="63"/>
    </contour>
  </outline>
</glyph>
<glyph name="four.midprop" format="2">
  <advance width="747"/>
  <outline>
    <contour>
      <point x="-2" y="117" type="line"/>
      <point x="660" y="117" type="line"/>
      <point x="679" y="177" type="line"/>
      <point x="53" y="177" type="line"/>
      <point x="57" y="143" type="line"/>
      <point x="592" y="624" type="line"/>
      <point x="608" y="648" type="line"/>
      <point x="534" y="648" type="line"/>
      <point x="21" y="189" type="line"/>
    </contour>
    <contour>
      <point x="458" y="-72" type="line"/>
      <point x="678" y="648" type="line"/>
      <point x="576" y="648" type="line"/>
      <point x="580" y="636" type="line"/>
      <point x="363" y="-72" type="line"/>
    </contour>
  </outline>
</glyph>
<glyph name="franc.proportional" format="2">
  <advance width="764"/>
  <outline>
    <contour>
      <point x="-12" y="0" type="line"/>
      <point x="343" y="0" type="line"/>
      <point x="362" y="58" type="line"/>
      <point x="337" y="58" type="line" smooth="yes"/>
      <point x="278" y="58"/>
      <point x="221" y="61"/>
      <point x="223" y="68" type="curve" smooth="yes"/>
      <point x="403" y="654" type="line"/>
      <point x="576" y="654" type="line" smooth="yes"/>
      <point x="681" y="654"/>
      <point x="720" y="645"/>
      <point x="716" y="609" type="curve" smooth="yes"/>
      <point x="708" y="534" type="line"/>
      <point x="778" y="534" type="line"/>
      <point x="828" y="710" type="line"/>
      <point x="206" y="710" type="line"/>
      <point x="188" y="652" type="line"/>
      <point x="202" y="652" type="line" smooth="yes"/>
      <point x="262" y="652"/>
      <point x="303" y="645"/>
      <point x="295" y="616" type="curve" smooth="yes"/>
      <point x="135" y="94" type="line" smooth="yes"/>
      <point x="126" y="65"/>
      <point x="79" y="58"/>
      <point x="20" y="58" type="curve" smooth="yes"/>
      <point x="6" y="58" type="line"/>
    </contour>
    <contour>
      <point x="314" y="429" type="curve"/>
      <point x="298" y="379" type="line"/>
      <point x="407" y="374"/>
      <point x="517" y="369"/>
      <point x="626" y="365" type="curve"/>
      <point x="651" y="443" type="line"/>
      <point x="538" y="438"/>
      <point x="426" y="434"/>
    </contour>
    <contour>
      <point x="65" y="256" type="line"/>
      <point x="50" y="205" type="line"/>
      <point x="510" y="205" type="line"/>
      <point x="526" y="256" type="line"/>
    </contour>
  </outline>
</glyph>
<glyph name="horn" format="2">
  <advance width="613"/>
  <anchor x="321" y="444" name="_top"/>
  <outline>
    <contour>
      <point x="188" y="513" type="line"/>
      <point x="347" y="517"/>
      <point x="459" y="545"/>
      <point x="503" y="737" type="curve"/>
      <point x="410" y="737" type="line"/>
      <point x="375" y="602"/>
      <point x="331" y="565"/>
      <point x="182" y="565" type="curve"/>
    </contour>
  </outline>
</glyph>
<glyph name="liraTurkish" format="2">
  <advance width="686"/>
  <outline>
    <contour>
      <point x="18" y="234" type="line"/>
      <point x="0" y="178" type="line"/>
      <point x="559" y="375" type="line"/>
      <point x="575" y="431" type="line"/>
    </contour>
    <contour>
      <point x="75" y="423" type="line"/>
      <point x="58" y="367" type="line"/>
      <point x="614" y="563" type="line"/>
      <point x="631" y="619" type="line"/>
    </contour>
    <contour>
      <point x="308" y="55" type="curve" smooth="yes"/>
      <point x="179" y="55" type="line"/>
      <point x="351" y="618" type="line" smooth="yes"/>
      <point x="360" y="647"/>
      <point x="407" y="654"/>
      <point x="458" y="654" type="curve" smooth="yes"/>
      <point x="467" y="654" type="line"/>
      <point x="484" y="710" type="line"/>
      <point x="171" y="710" type="line"/>
      <point x="153" y="654" type="line"/>
      <point x="170" y="654" type="line" smooth="yes"/>
      <point x="230" y="654"/>
      <point x="271" y="647"/>
      <point x="262" y="618" type="curve" smooth="yes"/>
      <point x="102" y="92" type="line" smooth="yes"/>
      <point x="93" y="63"/>
      <point x="47" y="56"/>
      <point x="-12" y="56" type="curve" smooth="yes"/>
      <point x="-30" y="56" type="line"/>
      <point x="-47" y="0" type="line"/>
      <point x="275" y="0" type="line" smooth="yes"/>
      <point x="513" y="0"/>
      <point x="593" y="82"/>
      <point x="650" y="258" type="curve"/>
      <point x="575" y="270" type="line"/>
      <point x="531" y="134"/>
      <point x="484" y="55"/>
    </contour>
  </outline>
</glyph>
<glyph name="manat.proportional" format="2">
  <advance width="870"/>
  <outline>
    <contour>
      <point x="545" y="760" type="line"/>
      <point x="350" y="124" type="line"/>
      <point x="424" y="124" type="line"/>
      <point x="619" y="760" type="line"/>
    </contour>
    <contour>
      <point x="-17" y="0" type="curve"/>
      <point x="86" y="0" type="line"/>
      <point x="241" y="459"/>
      <point x="304" y="557"/>
      <point x="515" y="557" type="curve" smooth="yes"/>
      <point x="735" y="557"/>
      <point x="737" y="457"/>
      <point x="621" y="0" type="curve"/>
      <point x="724" y="0" type="line"/>
      <point x="841" y="460"/>
      <point x="788" y="608"/>
      <point x="520" y="608" type="curve" smooth="yes"/>
      <point x="254" y="608"/>
      <point x="134" y="458"/>
    </contour>
  </outline>
</glyph>
<glyph name="minus.sub" format="2">
  <advance width="516"/>
  <outline>
    <contour>
      <point x="445" y="107" type="line"/>
      <point x="51" y="107" type="line"/>
      <point x="36" y="59" type="line"/>
      <point x="430" y="59" type="line"/>
    </contour>
  </outline>
</glyph>
<glyph name="nine.midprop" format="2">
  <advance width="712"/>
  <outline>
    <contour>
      <point x="27" y="-35" type="line"/>
      <point x="303" y="-25"/>
      <point x="454" y="73"/>
      <point x="522" y="216" type="curve" smooth="yes"/>
      <point x="554" y="284"/>
      <point x="568" y="361"/>
      <point x="568" y="444" type="curve" smooth="yes"/>
      <point x="568" y="565"/>
      <point x="507" y="605"/>
      <point x="392" y="605" type="curve" smooth="yes"/>
      <point x="305" y="605"/>
      <point x="245" y="571"/>
      <point x="207" y="520" type="curve" smooth="yes"/>
      <point x="177" y="477"/>
      <point x="163" y="424"/>
      <point x="163" y="367" type="curve" smooth="yes"/>
      <point x="163" y="299"/>
      <point x="208" y="248"/>
      <point x="313" y="248" type="curve" smooth="yes"/>
      <point x="430" y="248"/>
      <point x="489" y="307"/>
      <point x="576" y="399" type="curve"/>
      <point x="571" y="350" type="line"/>
      <point x="502" y="264"/>
      <point x="418" y="193"/>
      <point x="292" y="193" type="curve" smooth="yes"/>
      <point x="149" y="193"/>
      <point x="63" y="267"/>
      <point x="63" y="374" type="curve" smooth="yes"/>
      <point x="63" y="502"/>
      <point x="169" y="660"/>
      <point x="395" y="660" type="curve"/>
      <point x="567" y="660"/>
      <point x="666" y="587"/>
      <point x="666" y="433" type="curve" smooth="yes"/>
      <point x="666" y="131"/>
      <point x="447" y="-78"/>
      <point x="24" y="-90" type="curve"/>
    </contour>
  </outline>
</glyph>
<glyph name="nine.oldtab" format="2">
  <advance width="686"/>
  <outline>
    <contour>
      <point x="11" y="-83" type="line"/>
      <point x="285" y="-80"/>
      <point x="423" y="23"/>
      <point x="488" y="152" type="curve" smooth="yes"/>
      <point x="531" y="236"/>
      <point x="541" y="330"/>
      <point x="541" y="407" type="curve" smooth="yes"/>
      <point x="541" y="511"/>
      <point x="485" y="553"/>
      <point x="382" y="553" type="curve" smooth="yes"/>
      <point x="292" y="553"/>
      <point x="231" y="506"/>
      <point x="198" y="441" type="curve" smooth="yes"/>
      <point x="178" y="400"/>
      <point x="169" y="353"/>
      <point x="169" y="306" type="curve" smooth="yes"/>
      <point x="169" y="237"/>
      <point x="211" y="195"/>
      <point x="294" y="195" type="curve" smooth="yes"/>
      <point x="387" y="195"/>
      <point x="450" y="232"/>
      <point x="553" y="355" type="curve"/>
      <point x="556" y="307" type="line"/>
      <point x="466" y="195"/>
      <point x="391" y="140"/>
      <point x="262" y="140" type="curve" smooth="yes"/>
      <point x="137" y="140"/>
      <point x="68" y="205"/>
      <point x="68" y="310" type="curve" smooth="yes"/>
      <point x="68" y="454"/>
      <point x="172" y="608"/>
      <point x="386" y="608" type="curve" smooth="yes"/>
      <point x="553" y="608"/>
      <point x="636" y="536"/>
      <point x="636" y="397" type="curve" smooth="yes"/>
      <point x="636" y="122"/>
      <point x="468" y="-133"/>
      <point x="4" y="-142" type="curve"/>
    </contour>
  </outline>
</glyph>
<glyph name="one.oldprop" format="2">
  <advance width="642"/>
  <outline>
    <contour>
      <point x="345" y="89" type="curve" smooth="yes"/>
      <point x="502" y="598" type="line"/>
      <point x="435" y="598" type="line"/>
      <point x="370" y="517"/>
      <point x="286" y="495"/>
      <point x="154" y="492" type="curve"/>
      <point x="134" y="427" type="line"/>
      <point x="255" y="427"/>
      <point x="363" y="465"/>
      <point x="406" y="546" type="curve"/>
      <point x="386" y="532" type="line"/>
      <point x="250" y="89" type="line" smooth="yes"/>
      <point x="242" y="60"/>
      <point x="191" y="53"/>
      <point x="107" y="53" type="curve" smooth="yes"/>
      <point x="44" y="53" type="line"/>
      <point x="28" y="0" type="line"/>
      <point x="499" y="0" type="line"/>
      <point x="515" y="53" type="line"/>
      <point x="479" y="53" type="line" smooth="yes"/>
      <point x="388" y="53"/>
      <point x="336" y="60"/>
    </contour>
  </outline>
</glyph>
<glyph name="peso.proportional" format="2">
  <advance width="831"/>
  <outline>
    <contour>
      <point x="121" y="492" type="line"/>
      <point x="103" y="434" type="line"/>
      <point x="246" y="434" type="line"/>
      <point x="272" y="443" type="line"/>
      <point x="638" y="443" type="line"/>
      <point x="653" y="434" type="line"/>
      <point x="834" y="434" type="line"/>
      <point x="852" y="492" type="line"/>
      <point x="685" y="492" type="line"/>
      <point x="644" y="483" type="line"/>
      <point x="281" y="483" type="line"/>
      <point x="269" y="492" type="line"/>
    </contour>
    <contour>
      <point x="251" y="273" type="line"/>
      <point x="368" y="655" type="line"/>
      <point x="430" y="655" type="line" smooth="yes"/>
      <point x="567" y="655"/>
      <point x="630" y="606"/>
      <point x="630" y="510" type="curve" smooth="yes"/>
      <point x="630" y="464"/>
      <point x="622" y="423"/>
      <point x="605" y="388" type="curve" smooth="yes"/>
      <point x="571" y="315"/>
      <point x="495" y="273"/>
      <point x="366" y="273" type="curve" smooth="yes"/>
    </contour>
    <contour>
      <point x="188" y="710" type="line"/>
      <point x="171" y="654" type="line"/>
      <point x="184" y="654" type="line" smooth="yes"/>
      <point x="237" y="654"/>
      <point x="276" y="647"/>
      <point x="267" y="618" type="curve" smooth="yes"/>
      <point x="106" y="92" type="line" smooth="yes"/>
      <point x="97" y="63"/>
      <point x="54" y="56"/>
      <point x="1" y="56" type="curve" smooth="yes"/>
      <point x="-12" y="56" type="line"/>
      <point x="-30" y="0" type="line"/>
      <point x="275" y="0" type="line"/>
      <point x="292" y="56" type="line"/>
      <point x="267" y="56" type="line" smooth="yes"/>
      <point x="231" y="56"/>
      <point x="185" y="59"/>
      <point x="187" y="66" type="curve" smooth="yes"/>
      <point x="235" y="219" type="line"/>
      <point x="357" y="219" type="line" smooth="yes"/>
      <point x="575" y="219"/>
      <point x="719" y="322"/>
      <point x="719" y="510" type="curve" smooth="yes"/>
      <point x="719" y="635"/>
      <point x="618" y="710"/>
      <point x="432" y="710" type="curve" smooth="yes"/>
    </contour>
  </outline>
</glyph>
<glyph name="sterling.proportional" format="2">
  <advance width="782"/>
  <outline>
    <contour>
      <point x="503" y="680" type="curve" smooth="yes"/>
      <point x="597" y="680"/>
      <point x="651" y="662"/>
      <point x="702" y="642" type="curve"/>
      <point x="698" y="645"/>
      <point x="677" y="681"/>
      <point x="643" y="686" type="curve"/>
      <point x="595" y="529" type="line"/>
      <point x="694" y="529" type="line"/>
      <point x="743" y="690" type="line"/>
      <point x="716" y="706"/>
      <point x="633" y="735"/>
      <point x="505" y="735" type="curve" smooth="yes"/>
      <point x="316" y="735"/>
      <point x="194" y="661"/>
      <point x="194" y="529" type="curve" smooth="yes"/>
      <point x="194" y="456"/>
      <point x="241" y="383"/>
      <point x="241" y="292" type="curve" smooth="yes"/>
      <point x="241" y="172"/>
      <point x="161" y="92"/>
      <point x="-12" y="53" type="curve"/>
      <point x="-31" y="-12" type="line"/>
      <point x="206" y="38"/>
      <point x="324" y="146"/>
      <point x="324" y="310" type="curve" smooth="yes"/>
      <point x="324" y="390"/>
      <point x="293" y="458"/>
      <point x="293" y="522" type="curve" smooth="yes"/>
      <point x="293" y="628"/>
      <point x="357" y="680"/>
    </contour>
    <contour>
      <point x="81" y="376" type="line"/>
      <point x="65" y="322" type="line"/>
      <point x="581" y="322" type="line"/>
      <point x="596" y="376" type="line"/>
    </contour>
    <contour>
      <point x="470" y="-10" type="curve"/>
      <point x="594" y="-10"/>
      <point x="652" y="56"/>
      <point x="704" y="181" type="curve"/>
      <point x="643" y="198" type="line"/>
      <point x="597" y="103"/>
      <point x="566" y="71"/>
      <point x="478" y="71" type="curve"/>
      <point x="385" y="71"/>
      <point x="344" y="109"/>
      <point x="278" y="200" type="curve"/>
      <point x="230" y="153" type="line"/>
      <point x="305" y="45"/>
      <point x="335" y="-10"/>
    </contour>
  </outline>
</glyph>
<glyph name="thai:baht.proportional" format="2">
  <advance width="831"/>
  <outline>
    <contour>
      <point x="518" y="790" type="line"/>
      <point x="484" y="679" type="line"/>
      <point x="495" y="663" type="line"/>
      <point x="307" y="43" type="line"/>
      <point x="287" y="33" type="line"/>
      <point x="243" y="-110" type="line"/>
      <point x="328" y="-110" type="line"/>
      <point x="372" y="35" type="line"/>
      <point x="363" y="47" type="line"/>
      <point x="550" y="665" type="line"/>
      <point x="568" y="676" type="line"/>
      <point x="602" y="790" type="line"/>
    </contour>
    <contour>
      <point x="533" y="374" type="line"/>
      <point x="701" y="376"/>
      <point x="783" y="448"/>
      <point x="783" y="548" type="curve" smooth="yes"/>
      <point x="783" y="638"/>
      <point x="693" y="700"/>
      <point x="515" y="700" type="curve" smooth="yes"/>
      <point x="174" y="700" type="line"/>
      <point x="157" y="644" type="line"/>
      <point x="170" y="644" type="line" smooth="yes"/>
      <point x="214" y="644"/>
      <point x="236" y="637"/>
      <point x="226" y="608" type="curve" smooth="yes"/>
      <point x="72" y="102" type="line" smooth="yes"/>
      <point x="63" y="73"/>
      <point x="35" y="66"/>
      <point x="-6" y="66" type="curve" smooth="yes"/>
      <point x="-20" y="66" type="line"/>
      <point x="-36" y="10" type="line"/>
      <point x="388" y="10" type="line" smooth="yes"/>
      <point x="606" y="10"/>
      <point x="737" y="86"/>
      <point x="737" y="217" type="curve"/>
      <point x="737" y="300"/>
      <point x="667" y="357"/>
      <point x="537" y="372" type="curve"/>
      <point x="551" y="360" type="line"/>
      <point x="557" y="382" type="line"/>
    </contour>
    <contour>
      <point x="248" y="393" type="line"/>
      <point x="327" y="652" type="line"/>
      <point x="511" y="652" type="line"/>
      <point x="645" y="652"/>
      <point x="692" y="615"/>
      <point x="692" y="551" type="curve" smooth="yes"/>
      <point x="692" y="485"/>
      <point x="659" y="393"/>
      <point x="497" y="393" type="curve" smooth="yes"/>
    </contour>
    <contour>
      <point x="145" y="57" type="line"/>
      <point x="235" y="352" type="line"/>
      <point x="472" y="352" type="line" smooth="yes"/>
      <point x="604" y="352"/>
      <point x="643" y="293"/>
      <point x="643" y="228" type="curve" smooth="yes"/>
      <point x="643" y="144"/>
      <point x="600" y="57"/>
      <point x="416" y="57" type="curve" smooth="yes"/>
    </contour>
  </outline>
</glyph>
<glyph name="three.oldprop" format="2">
  <advance width="712"/>
  <outline>
    <contour>
      <point x="341" y="256" type="line"/>
      <point x="516" y="257"/>
      <point x="640" y="321"/>
      <point x="640" y="452" type="curve" smooth="yes"/>
      <point x="640" y="542"/>
      <point x="564" y="608"/>
      <point x="394" y="608" type="curve" smooth="yes"/>
      <point x="293" y="608"/>
      <point x="204" y="579"/>
      <point x="167" y="558" type="curve"/>
      <point x="125" y="410" type="line"/>
      <point x="220" y="410" type="line"/>
      <point x="260" y="546" type="line"/>
      <point x="224" y="542"/>
      <point x="199" y="527"/>
      <point x="200" y="513" type="curve"/>
      <point x="233" y="531"/>
      <point x="297" y="554"/>
      <point x="387" y="554" type="curve" smooth="yes"/>
      <point x="493" y="554"/>
      <point x="541" y="520"/>
      <point x="541" y="450" type="curve" smooth="yes"/>
      <point x="541" y="338"/>
      <point x="462" y="286"/>
      <point x="321" y="286" type="curve"/>
      <point x="189" y="286" type="line"/>
      <point x="172" y="228" type="line"/>
      <point x="293" y="228" type="line"/>
      <point x="425" y="228"/>
      <point x="484" y="174"/>
      <point x="484" y="94" type="curve" smooth="yes"/>
      <point x="484" y="-14"/>
      <point x="414" y="-76"/>
      <point x="270" y="-76" type="curve" smooth="yes"/>
      <point x="100" y="-76"/>
      <point x="59" y="7"/>
      <point x="26" y="81" type="curve"/>
      <point x="-47" y="57" type="line"/>
      <point x="-13" y="-42"/>
      <point x="62" y="-131"/>
      <point x="270" y="-131" type="curve" smooth="yes"/>
      <point x="452" y="-131"/>
      <point x="584" y="-49"/>
      <point x="584" y="88" type="curve" smooth="yes"/>
      <point x="584" y="185"/>
      <point x="503" y="251"/>
      <point x="321" y="259" type="curve"/>
      <point x="374" y="243" type="line"/>
      <point x="382" y="267" type="line"/>
    </contour>
  </outline>
</glyph>
<glyph name="won.proportional" format="2">
  <advance width="1072"/>
  <outline>
    <contour>
      <point x="188" y="710" type="line"/>
      <point x="172" y="659" type="line"/>
      <point x="188" y="659" type="line" smooth="yes"/>
      <point x="216" y="659"/>
      <point x="246" y="656"/>
      <point x="243" y="622" type="curve" smooth="yes"/>
      <point x="190" y="0" type="line"/>
      <point x="274" y="0" type="line"/>
      <point x="667" y="703" type="line"/>
      <point x="638" y="707" type="line"/>
      <point x="603" y="0" type="line"/>
      <point x="699" y="0" type="line"/>
      <point x="1009" y="616" type="line" smooth="yes"/>
      <point x="1026" y="650"/>
      <point x="1062" y="659"/>
      <point x="1089" y="659" type="curve" smooth="yes"/>
      <point x="1105" y="659" type="line"/>
      <point x="1121" y="710" type="line"/>
      <point x="918" y="710" type="line"/>
      <point x="901" y="659" type="line"/>
      <point x="919" y="659" type="line" smooth="yes"/>
      <point x="948" y="659"/>
      <point x="960" y="652"/>
      <point x="957" y="641" type="curve"/>
      <point x="643" y="8" type="line"/>
      <point x="674" y="10" type="line"/>
      <point x="709" y="710" type="line"/>
      <point x="610" y="710" type="line"/>
      <point x="220" y="12" type="line"/>
      <point x="261" y="15" type="line"/>
      <point x="322" y="649" type="line"/>
      <point x="324" y="656"/>
      <point x="344" y="659"/>
      <point x="369" y="659" type="curve" smooth="yes"/>
      <point x="386" y="659" type="line"/>
      <point x="403" y="710" type="line"/>
    </contour>
    <contour>
      <point x="103" y="507" type="line"/>
      <point x="84" y="443" type="line"/>
      <point x="266" y="443" type="line"/>
      <point x="264" y="455" type="line"/>
      <point x="526" y="482" type="line"/>
      <point x="529" y="507" type="line"/>
    </contour>
    <contour>
      <point x="653" y="482" type="line"/>
      <point x="907" y="455" type="line"/>
      <point x="893" y="443" type="line"/>
      <point x="1060" y="443" type="line"/>
      <point x="1079" y="507" type="line"/>
      <point x="664" y="507" type="line"/>
    </contour>
    <contour>
      <point x="360" y="236" type="line"/>
      <point x="659" y="236" type="line"/>
      <point x="658" y="256" type="line"/>
      <point x="529" y="289" type="line"/>
      <point x="378" y="256" type="line"/>
    </contour>
    <contour>
      <point x="801" y="233" type="line"/>
      <point x="995" y="233" type="line"/>
      <point x="1015" y="297" type="line"/>
      <point x="833" y="297" type="line"/>
    </contour>
    <contour>
      <point x="232" y="297" type="line"/>
      <point x="39" y="297" type="line"/>
      <point x="19" y="233" type="line"/>
      <point x="226" y="233" type="line"/>
    </contour>
  </outline>
</glyph>
